<?xml version="1.0" encoding="UTF-8"?>
<svg id="Camada_2" data-name="Camada 2" xmlns="http://www.w3.org/2000/svg" viewBox="0 0 670.58 219.98">
  <defs>
    <style>
      .cls-1 {
        fill: #1d1e1b;
      }

      .cls-1, .cls-2 {
        stroke-width: 0px;
      }

      .cls-2 {
        fill: #4a8533;
      }
    </style>
  </defs>
  <g id="Camada_1-2" data-name="Camada 1">
    <g>
      <g>
        <path class="cls-1" d="M120.44,219.92c-23.05,0-43.64-4.86-61.75-14.64-18.11-9.78-32.4-22.92-42.93-39.47C5.23,149.32,0,130.68,0,109.96s5.23-39.3,15.76-55.85c10.53-16.55,24.82-29.69,42.93-39.47C76.8,4.98,97.39.06,120.44.06h27.17v42.25h-28.05c-13.47,0-25.35,2.95-35.7,8.85-10.35,5.9-18.47,14.01-24.29,24.37-5.82,10.36-8.76,21.88-8.76,34.49s2.94,24.13,8.76,34.49c5.82,10.36,13.94,18.46,24.29,24.36,10.35,5.9,22.29,8.86,35.7,8.86h28.05v42.25h-27.17v-.06Z"/>
        <path class="cls-1" d="M381.84,219.92V53.42h48.11v166.5h-48.11Z"/>
        <path class="cls-1" d="M546.32,219.92c-20.35,0-37.93-4.92-52.69-14.82-14.76-9.9-26.17-23.09-34.11-39.76-7.94-16.61-11.94-34.9-11.94-54.98s4.53-39.59,13.58-56.2c9.06-16.61,22.05-29.81,38.93-39.53C516.98,4.92,537.09.06,560.55.06s42.87,4.86,59.22,14.64c16.35,9.78,28.87,22.92,37.64,39.53,8.76,16.61,13.17,35.07,13.17,55.39v110.36h-48.11v-44.04h-.82c-4.17,7.7-9.64,14.87-16.29,21.59-6.7,6.71-14.94,12.15-24.7,16.26-9.76,4.11-21.17,6.19-34.28,6.19l-.06-.06ZM559.26,179.58c12.53,0,23.47-3.07,32.81-9.26,9.35-6.19,16.58-14.53,21.76-25.12,5.18-10.59,7.76-22.46,7.76-35.59s-2.53-24.89-7.53-35.19c-5-10.3-12.11-18.52-21.35-24.71-9.23-6.19-20.23-9.26-33.05-9.26s-24.82,3.07-34.28,9.26c-9.47,6.19-16.76,14.47-21.76,24.89-5,10.42-7.53,22.22-7.53,35.42s2.53,24.65,7.53,35.19c5,10.59,12.23,18.93,21.52,25.12,9.35,6.19,20.7,9.26,34.11,9.26Z"/>
        <path class="cls-2" d="M83.92,51.16c10.35-5.9,22.29-8.85,35.7-8.85h28.05V.06h-27.17C97.44.06,76.86,4.98,58.75,14.7c-18.11,9.72-32.4,22.92-42.93,39.47-4,6.25-6.94,12.91-9.41,19.74h54.46c5.76-9.49,13.35-17.19,23.11-22.74h-.06Z"/>
        <path class="cls-2" d="M429.94,53.42h-48.11v22.11h48.11v-22.11Z"/>
        <path class="cls-2" d="M657.41,54.17c-8.76-16.61-21.35-29.81-37.64-39.53-16.29-9.72-36.05-14.64-59.22-14.64s-43.58,4.86-60.45,14.64c-16.88,9.72-29.87,22.92-38.93,39.53-3.71,6.71-6.41,13.89-8.59,21.36h50.75c.12-.29.18-.64.35-.98,5-10.42,12.29-18.75,21.76-24.89,9.47-6.19,20.94-9.26,34.28-9.26s23.82,3.07,33.05,9.26c9.17,6.19,16.29,14.41,21.35,24.71.18.35.24.81.41,1.16h51.28c-2.12-7.41-4.76-14.58-8.35-21.36h-.06Z"/>
        <path class="cls-1" d="M431.29,23.38c-.65,3.59-1.71,6.6-3.18,9.14-1.47,2.49-3.18,4.34-5.06,5.56-1.94,1.22-3.88,1.62-5.88,1.22l-27.46-4.98,2-10.88,28.29,5.09c1.18.23,2.29-.23,3.35-1.39,1.06-1.16,1.82-2.72,2.18-4.8l3.12-16.84,5.76,1.04-3.12,16.84Z"/>
        <path class="cls-2" d="M380.48,21.01c.65-3.59,1.71-6.6,3.18-9.14,1.47-2.49,3.18-4.34,5.06-5.56,1.94-1.22,3.88-1.62,5.88-1.22l27.46,4.98-2,10.88-28.29-5.09c-1.18-.23-2.29.23-3.35,1.39-1.06,1.16-1.82,2.72-2.18,4.8l-3.12,16.84-5.76-1.04,3.12-16.84Z"/>
      </g>
      <path class="cls-1" d="M329.12,75.53v24.84c0,13.41-2.95,25.35-8.86,35.7-5.9,10.35-14,18.47-24.36,24.29-10.36,5.82-21.88,8.76-34.49,8.76s-24.13-2.94-34.49-8.76c-.56-.31-1.08-.66-1.62-.98v-.31c-9.49-5.76-17.19-13.35-22.74-23.11v.06c-5.9-10.35-8.85-22.29-8.85-35.7v-24.84h-42.25v24.02c0,23.05,4.92,43.64,14.58,61.75,9.78,18.11,22.92,32.4,39.47,42.93,16.55,10.53,35.13,15.76,55.85,15.76s39.35-5.23,55.85-15.76c16.55-10.53,29.69-24.82,39.47-42.93,9.78-18.11,14.64-38.7,14.64-61.75h.06v-23.96h-42.25Z"/>
    </g>
  </g>
</svg>