<svg style="display:none">
	<symbol id="Logo" viewBox="0 0 126 16" fill="none" xmlns="http://www.w3.org/2000/svg"><path d="M0.459999 0.999999H10.02V2.98H2.84V6.92H8.22V8.9H2.84V15H0.459999V0.999999Z" fill="#161616"/><path d="M23.6177 2.98H22.8977L18.6977 15H16.2577L21.2177 0.999999H25.2577L30.2377 15H27.7977L23.6177 2.98ZM18.9777 9.62H27.1377V11.58H18.9777V9.62Z" fill="#161616"/><path d="M40.435 11.16C40.515 11.5333 40.6683 11.8733 40.895 12.18C41.135 12.4733 41.4483 12.7067 41.835 12.88C42.235 13.0533 42.7083 13.14 43.255 13.14C44.095 13.14 44.7217 12.9467 45.135 12.56C45.5483 12.16 45.755 11.6933 45.755 11.16C45.755 10.72 45.6217 10.3533 45.355 10.06C45.1017 9.76667 44.7417 9.52 44.275 9.32C43.8083 9.10667 43.275 8.90667 42.675 8.72C42.1283 8.56 41.6017 8.39333 41.095 8.22C40.5883 8.03333 40.1283 7.80667 39.715 7.54C39.315 7.26 38.995 6.90667 38.755 6.48C38.515 6.04 38.4017 5.49333 38.415 4.84C38.415 3.98667 38.615 3.26667 39.015 2.68C39.415 2.08 39.975 1.62667 40.695 1.32C41.415 1.01333 42.2417 0.86 43.175 0.86C43.9617 0.86 44.6683 0.973333 45.295 1.2C45.935 1.41333 46.475 1.73333 46.915 2.16C47.355 2.57333 47.6817 3.08667 47.895 3.7L45.715 4.42C45.635 4.12667 45.475 3.86667 45.235 3.64C44.995 3.4 44.695 3.21333 44.335 3.08C43.9883 2.94667 43.6083 2.87333 43.195 2.86C42.7417 2.84667 42.335 2.91333 41.975 3.06C41.6283 3.20667 41.3483 3.42 41.135 3.7C40.9217 3.96667 40.815 4.28 40.815 4.64C40.815 5.05333 40.935 5.38 41.175 5.62C41.415 5.84667 41.7283 6.04 42.115 6.2C42.515 6.34667 42.955 6.5 43.435 6.66C43.995 6.82 44.5483 7.00667 45.095 7.22C45.655 7.42 46.1617 7.68 46.615 8C47.0817 8.30667 47.455 8.7 47.735 9.18C48.015 9.66 48.155 10.26 48.155 10.98C48.155 11.7533 47.975 12.4533 47.615 13.08C47.2683 13.7067 46.735 14.2067 46.015 14.58C45.295 14.9533 44.4017 15.14 43.335 15.14C42.4683 15.14 41.675 15.0133 40.955 14.76C40.2483 14.4933 39.655 14.12 39.175 13.64C38.7083 13.1467 38.4017 12.5667 38.255 11.9L40.435 11.16Z" fill="#161616"/><path d="M57.4952 0.999999H59.8752V6.92H66.4752V0.999999H68.8352V15H66.4752V8.9H59.8752V15H57.4952V0.999999Z" fill="#161616"/><path d="M78.7725 0.999999H81.1525V15H78.7725V0.999999Z" fill="#161616"/><path d="M97.485 15.14C96.4983 15.14 95.5717 14.9667 94.705 14.62C93.8383 14.2733 93.0783 13.7867 92.425 13.16C91.785 12.52 91.2783 11.7667 90.905 10.9C90.545 10.02 90.365 9.05333 90.365 8C90.365 6.96 90.545 6.00667 90.905 5.14C91.2783 4.26 91.785 3.5 92.425 2.86C93.0783 2.22 93.8383 1.72667 94.705 1.38C95.5717 1.03333 96.4983 0.86 97.485 0.86C98.4717 0.86 99.3917 1.03333 100.245 1.38C101.112 1.72667 101.865 2.22 102.505 2.86C103.158 3.5 103.665 4.26 104.025 5.14C104.398 6.00667 104.585 6.96 104.585 8C104.585 9.05333 104.398 10.02 104.025 10.9C103.665 11.7667 103.158 12.52 102.505 13.16C101.865 13.7867 101.112 14.2733 100.245 14.62C99.3917 14.9667 98.4717 15.14 97.485 15.14ZM97.485 13.12C98.3917 13.12 99.1983 12.9133 99.905 12.5C100.612 12.0733 101.165 11.48 101.565 10.72C101.965 9.94667 102.165 9.04 102.165 8C102.165 6.94667 101.965 6.04 101.565 5.28C101.165 4.52 100.612 3.93333 99.905 3.52C99.1983 3.09333 98.3917 2.88 97.485 2.88C96.5783 2.88 95.7717 3.09333 95.065 3.52C94.3583 3.93333 93.7983 4.52 93.385 5.28C92.985 6.04 92.785 6.94667 92.785 8C92.785 9.04 92.985 9.94667 93.385 10.72C93.7983 11.48 94.3583 12.0733 95.065 12.5C95.7717 12.9133 96.5783 13.12 97.485 13.12Z" fill="#161616"/><path d="M125.089 0.999999V15H122.669L116.149 4.74V15H113.769V0.999999H116.209L122.729 11.22V0.999999H125.089Z" fill="#161616"/></symbol>
	<symbol id="ChevronLeft" xmlns="http://www.w3.org/2000/svg" fill="none" viewBox="0 0 24 24" stroke="currentColor"><path stroke-linecap="round" stroke-linejoin="round" d="M15.75 19.5L8.25 12l7.5-7.5" /></symbol>
	<symbol id="ChevronRight" xmlns="http://www.w3.org/2000/svg" fill="none" viewBox="0 0 24 24" stroke="currentColor"><path stroke-linecap="round" stroke-linejoin="round" d="M8.25 4.5l7.5 7.5-7.5 7.5" /></symbol>
	<symbol id="ChevronUp" xmlns="http://www.w3.org/2000/svg" fill="none" viewBox="0 0 24 24" stroke="currentColor"><path stroke-linecap="round" stroke-linejoin="round" d="M4.5 15.75l7.5-7.5 7.5 7.5" /></symbol>	
	<symbol id="ChevronDown" xmlns="http://www.w3.org/2000/svg" fill="none" viewBox="0 0 24 24" stroke="currentColor"><path stroke-linecap="round" stroke-linejoin="round" d="M19.5 8.25l-7.5 7.5-7.5-7.5" /></symbol>
	<symbol id="QuestionMarkCircle" xmlns="http://www.w3.org/2000/svg" fill="none" viewBox="0 0 24 24" stroke="currentColor"><path stroke-linecap="round" stroke-linejoin="round" d="M9.879 7.519c1.171-1.025 3.071-1.025 4.242 0 1.172 1.025 1.172 2.687 0 3.712-.203.179-.43.326-.67.442-.745.361-1.45.999-1.45 1.827v.75M21 12a9 9 0 11-18 0 9 9 0 0118 0zm-9 5.25h.008v.008H12v-.008z" /></symbol>
	<symbol id="User" width="20" height="20" viewBox="0 0 20 20" fill="none" xmlns="http://www.w3.org/2000/svg"><path fill-rule="evenodd" clip-rule="evenodd" d="M10.0003 3.33366C8.61961 3.33366 7.50033 4.45295 7.50033 5.83366C7.50033 7.21437 8.61961 8.33366 10.0003 8.33366C11.381 8.33366 12.5003 7.21437 12.5003 5.83366C12.5003 4.45295 11.381 3.33366 10.0003 3.33366ZM5.83366 5.83366C5.83366 3.53247 7.69914 1.66699 10.0003 1.66699C12.3015 1.66699 14.167 3.53247 14.167 5.83366C14.167 8.13484 12.3015 10.0003 10.0003 10.0003C7.69914 10.0003 5.83366 8.13484 5.83366 5.83366ZM8.33366 13.3337C7.67062 13.3337 7.03473 13.597 6.56589 14.0659C6.09705 14.5347 5.83366 15.1706 5.83366 15.8337V17.5003C5.83366 17.9606 5.46056 18.3337 5.00033 18.3337C4.54009 18.3337 4.16699 17.9606 4.16699 17.5003V15.8337C4.16699 14.7286 4.60598 13.6688 5.38738 12.8874C6.16878 12.106 7.22859 11.667 8.33366 11.667H11.667C12.7721 11.667 13.8319 12.106 14.6133 12.8874C15.3947 13.6688 15.8337 14.7286 15.8337 15.8337V17.5003C15.8337 17.9606 15.4606 18.3337 15.0003 18.3337C14.5401 18.3337 14.167 17.9606 14.167 17.5003V15.8337C14.167 15.1706 13.9036 14.5347 13.4348 14.0659C12.9659 13.597 12.33 13.3337 11.667 13.3337H8.33366Z" fill="currentColor"/></symbol>
	<symbol id="ShoppingCart" width="20" height="20" viewBox="0 0 20 20" fill="none" xmlns="http://www.w3.org/2000/svg"><path d="M14.9997 5.00033H13.333C13.333 3.15866 11.8413 1.66699 9.99968 1.66699C8.15801 1.66699 6.66634 3.15866 6.66634 5.00033H4.99967C4.08301 5.00033 3.33301 5.75033 3.33301 6.66699V16.667C3.33301 17.5837 4.08301 18.3337 4.99967 18.3337H14.9997C15.9163 18.3337 16.6663 17.5837 16.6663 16.667V6.66699C16.6663 5.75033 15.9163 5.00033 14.9997 5.00033ZM9.99968 3.33366C10.9163 3.33366 11.6663 4.08366 11.6663 5.00033H8.33301C8.33301 4.08366 9.08301 3.33366 9.99968 3.33366ZM14.9997 16.667H4.99967V6.66699H6.66634V8.33366C6.66634 8.79199 7.04134 9.16699 7.49967 9.16699C7.95801 9.16699 8.33301 8.79199 8.33301 8.33366V6.66699H11.6663V8.33366C11.6663 8.79199 12.0413 9.16699 12.4997 9.16699C12.958 9.16699 13.333 8.79199 13.333 8.33366V6.66699H14.9997V16.667Z" fill="currentColor"/></symbol>
	<symbol id="Bars3" xmlns="http://www.w3.org/2000/svg" viewBox="0 0 20 20" stroke="currentColor" fill="none"><path fill-rule="evenodd" clip-rule="evenodd" d="M2.5 5.00033C2.5 4.54009 2.8731 4.16699 3.33333 4.16699H16.6667C17.1269 4.16699 17.5 4.54009 17.5 5.00033C17.5 5.46056 17.1269 5.83366 16.6667 5.83366H3.33333C2.8731 5.83366 2.5 5.46056 2.5 5.00033ZM2.5 10.0003C2.5 9.54009 2.8731 9.16699 3.33333 9.16699H16.6667C17.1269 9.16699 17.5 9.54009 17.5 10.0003C17.5 10.4606 17.1269 10.8337 16.6667 10.8337H3.33333C2.8731 10.8337 2.5 10.4606 2.5 10.0003ZM2.5 15.0003C2.5 14.5401 2.8731 14.167 3.33333 14.167H16.6667C17.1269 14.167 17.5 14.5401 17.5 15.0003C17.5 15.4606 17.1269 15.8337 16.6667 15.8337H3.33333C2.8731 15.8337 2.5 15.4606 2.5 15.0003Z" fill="currentColor"/></symbol>
	<symbol id="Heart" xmlns="http://www.w3.org/2000/svg" viewBox="0 0 24 24" stroke="currentColor"><path stroke-linecap="round" stroke-linejoin="round" d="M21 8.25c0-2.485-2.099-4.5-4.688-4.5-1.935 0-3.597 1.126-4.312 2.733-.715-1.607-2.377-2.733-4.313-2.733C5.1 3.75 3 5.765 3 8.25c0 7.22 9 12 9 12s9-4.78 9-12z" /></symbol>
	<symbol id="MagnifyingGlass" width="20" height="20" viewBox="0 0 20 20" fill="none" xmlns="http://www.w3.org/2000/svg"><path fill-rule="evenodd" clip-rule="evenodd" d="M8.33366 3.33366C5.57223 3.33366 3.33366 5.57223 3.33366 8.33366C3.33366 11.0951 5.57223 13.3337 8.33366 13.3337C11.0951 13.3337 13.3337 11.0951 13.3337 8.33366C13.3337 5.57223 11.0951 3.33366 8.33366 3.33366ZM1.66699 8.33366C1.66699 4.65176 4.65176 1.66699 8.33366 1.66699C12.0156 1.66699 15.0003 4.65176 15.0003 8.33366C15.0003 9.87425 14.4778 11.2928 13.6002 12.4217L18.0896 16.9111C18.415 17.2365 18.415 17.7641 18.0896 18.0896C17.7641 18.415 17.2365 18.415 16.9111 18.0896L12.4217 13.6002C11.2928 14.4778 9.87425 15.0003 8.33366 15.0003C4.65176 15.0003 1.66699 12.0156 1.66699 8.33366Z" fill="currentColor"/></symbol>
	<symbol id="XMark" xmlns="http://www.w3.org/2000/svg" fill="none" viewBox="0 0 24 24" stroke="currentColor"><path stroke-linecap="round" stroke-linejoin="round" d="M6 18L18 6M6 6l12 12" /></symbol>
	<symbol id="Plus" xmlns="http://www.w3.org/2000/svg" fill="none" viewBox="0 0 24 24" stroke="currentColor"><path stroke-linecap="round" stroke-linejoin="round" d="M12 4.5v15m7.5-7.5h-15" /></symbol>
	<symbol id="Minus" xmlns="http://www.w3.org/2000/svg" fill="none" viewBox="0 0 24 24" stroke="currentColor"><path stroke-linecap="round" stroke-linejoin="round" d="M19.5 12h-15" /></symbol>
	<symbol id="MapPin" xmlns="http://www.w3.org/2000/svg" fill="none" viewBox="0 0 24 24" stroke="currentColor"><path stroke-linecap="round" stroke-linejoin="round" d="M15 10.5a3 3 0 11-6 0 3 3 0 016 0z" /><path stroke-linecap="round" stroke-linejoin="round" d="M19.5 10.5c0 7.142-7.5 11.25-7.5 11.25S4.5 17.642 4.5 10.5a7.5 7.5 0 1115 0z" /></symbol>	
	<symbol id="Phone" xmlns="http://www.w3.org/2000/svg" fill="none" viewBox="0 0 24 24" stroke="currentColor"><path stroke-linecap="round" stroke-linejoin="round" d="M2.25 6.75c0 8.284 6.716 15 15 15h2.25a2.25 2.25 0 002.25-2.25v-1.372c0-.516-.351-.966-.852-1.091l-4.423-1.106c-.44-.11-.902.055-1.173.417l-.97 1.293c-.282.376-.769.542-1.21.38a12.035 12.035 0 01-7.143-7.143c-.162-.441.004-.928.38-1.21l1.293-.97c.363-.271.527-.734.417-1.173L6.963 3.102a1.125 1.125 0 00-1.091-.852H4.5A2.25 2.25 0 002.25 4.5v2.25z" /></symbol>
  <symbol id="LogoCuia" xmlns="http://www.w3.org/2000/svg" viewBox="0 0 670.58 219.98" ><defs>
    <style>
      .cls-1 {
        fill: #1d1e1b;
      }

      .cls-1, .cls-2 {
        stroke-width: 0px;
      }

      .cls-2 {
        fill: #4a8533;
      }
    </style>
  </defs>
  <g id="Camada_1-2" data-name="Camada 1">
    <g>
      <g>
        <path class="cls-1" d="M120.44,219.92c-23.05,0-43.64-4.86-61.75-14.64-18.11-9.78-32.4-22.92-42.93-39.47C5.23,149.32,0,130.68,0,109.96s5.23-39.3,15.76-55.85c10.53-16.55,24.82-29.69,42.93-39.47C76.8,4.98,97.39.06,120.44.06h27.17v42.25h-28.05c-13.47,0-25.35,2.95-35.7,8.85-10.35,5.9-18.47,14.01-24.29,24.37-5.82,10.36-8.76,21.88-8.76,34.49s2.94,24.13,8.76,34.49c5.82,10.36,13.94,18.46,24.29,24.36,10.35,5.9,22.29,8.86,35.7,8.86h28.05v42.25h-27.17v-.06Z"/>
        <path class="cls-1" d="M381.84,219.92V53.42h48.11v166.5h-48.11Z"/>
        <path class="cls-1" d="M546.32,219.92c-20.35,0-37.93-4.92-52.69-14.82-14.76-9.9-26.17-23.09-34.11-39.76-7.94-16.61-11.94-34.9-11.94-54.98s4.53-39.59,13.58-56.2c9.06-16.61,22.05-29.81,38.93-39.53C516.98,4.92,537.09.06,560.55.06s42.87,4.86,59.22,14.64c16.35,9.78,28.87,22.92,37.64,39.53,8.76,16.61,13.17,35.07,13.17,55.39v110.36h-48.11v-44.04h-.82c-4.17,7.7-9.64,14.87-16.29,21.59-6.7,6.71-14.94,12.15-24.7,16.26-9.76,4.11-21.17,6.19-34.28,6.19l-.06-.06ZM559.26,179.58c12.53,0,23.47-3.07,32.81-9.26,9.35-6.19,16.58-14.53,21.76-25.12,5.18-10.59,7.76-22.46,7.76-35.59s-2.53-24.89-7.53-35.19c-5-10.3-12.11-18.52-21.35-24.71-9.23-6.19-20.23-9.26-33.05-9.26s-24.82,3.07-34.28,9.26c-9.47,6.19-16.76,14.47-21.76,24.89-5,10.42-7.53,22.22-7.53,35.42s2.53,24.65,7.53,35.19c5,10.59,12.23,18.93,21.52,25.12,9.35,6.19,20.7,9.26,34.11,9.26Z"/>
        <path class="cls-2" d="M83.92,51.16c10.35-5.9,22.29-8.85,35.7-8.85h28.05V.06h-27.17C97.44.06,76.86,4.98,58.75,14.7c-18.11,9.72-32.4,22.92-42.93,39.47-4,6.25-6.94,12.91-9.41,19.74h54.46c5.76-9.49,13.35-17.19,23.11-22.74h-.06Z"/>
        <path class="cls-2" d="M429.94,53.42h-48.11v22.11h48.11v-22.11Z"/>
        <path class="cls-2" d="M657.41,54.17c-8.76-16.61-21.35-29.81-37.64-39.53-16.29-9.72-36.05-14.64-59.22-14.64s-43.58,4.86-60.45,14.64c-16.88,9.72-29.87,22.92-38.93,39.53-3.71,6.71-6.41,13.89-8.59,21.36h50.75c.12-.29.18-.64.35-.98,5-10.42,12.29-18.75,21.76-24.89,9.47-6.19,20.94-9.26,34.28-9.26s23.82,3.07,33.05,9.26c9.17,6.19,16.29,14.41,21.35,24.71.18.35.24.81.41,1.16h51.28c-2.12-7.41-4.76-14.58-8.35-21.36h-.06Z"/>
        <path class="cls-1" d="M431.29,23.38c-.65,3.59-1.71,6.6-3.18,9.14-1.47,2.49-3.18,4.34-5.06,5.56-1.94,1.22-3.88,1.62-5.88,1.22l-27.46-4.98,2-10.88,28.29,5.09c1.18.23,2.29-.23,3.35-1.39,1.06-1.16,1.82-2.72,2.18-4.8l3.12-16.84,5.76,1.04-3.12,16.84Z"/>
        <path class="cls-2" d="M380.48,21.01c.65-3.59,1.71-6.6,3.18-9.14,1.47-2.49,3.18-4.34,5.06-5.56,1.94-1.22,3.88-1.62,5.88-1.22l27.46,4.98-2,10.88-28.29-5.09c-1.18-.23-2.29.23-3.35,1.39-1.06,1.16-1.82,2.72-2.18,4.8l-3.12,16.84-5.76-1.04,3.12-16.84Z"/>
      </g>
      <path class="cls-1" d="M329.12,75.53v24.84c0,13.41-2.95,25.35-8.86,35.7-5.9,10.35-14,18.47-24.36,24.29-10.36,5.82-21.88,8.76-34.49,8.76s-24.13-2.94-34.49-8.76c-.56-.31-1.08-.66-1.62-.98v-.31c-9.49-5.76-17.19-13.35-22.74-23.11v.06c-5.9-10.35-8.85-22.29-8.85-35.7v-24.84h-42.25v24.02c0,23.05,4.92,43.64,14.58,61.75,9.78,18.11,22.92,32.4,39.47,42.93,16.55,10.53,35.13,15.76,55.85,15.76s39.35-5.23,55.85-15.76c16.55-10.53,29.69-24.82,39.47-42.93,9.78-18.11,14.64-38.7,14.64-61.75h.06v-23.96h-42.25Z"/>
    </g>
  </g></symbol>
	<symbol id="Elo" xmlns="http://www.w3.org/2000/svg" viewBox="0 0 40 14" stroke="currentColor" fill="none"><path d="M6.57655 3.09309C6.98496 2.95495 7.4234 2.88288 7.87985 2.88288C9.87385 2.88288 11.5375 4.3003 11.9159 6.18018L14.7387 5.6036C14.0901 2.40841 11.2672 0 7.87985 0C7.10508 0 6.36033 0.126126 5.66364 0.36036L6.57655 3.09309Z" fill="currentColor"/><path d="M3.24323 12.2463L5.15314 10.0841C4.30029 9.32733 3.76576 8.22823 3.76576 6.997C3.76576 5.77178 4.30029 4.66667 5.15314 3.91592L3.24323 1.75977C1.79579 3.04505 0.882874 4.91292 0.882874 7.00301C0.882874 9.08709 1.79579 10.961 3.24323 12.2463Z" fill="currentColor"/><path d="M11.9159 7.82617C11.5315 9.70605 9.87387 11.1175 7.87988 11.1175C7.42342 11.1175 6.98498 11.0454 6.57057 10.9073L5.65765 13.64C6.35435 13.8742 7.1051 14.0003 7.87988 14.0003C11.2673 14.0003 14.0901 11.5979 14.7387 8.40275L11.9159 7.82617Z" fill="currentColor"/><path d="M24.1441 9.75962C23.6757 10.2161 23.045 10.4924 22.3484 10.4803C21.8679 10.4743 21.4234 10.3302 21.0511 10.0899L20.1141 11.5794C20.7568 11.9818 21.5075 12.2221 22.3243 12.2341C23.5075 12.2521 24.5886 11.7836 25.3754 11.0209L24.1441 9.75962ZM22.4505 3.68755C20.0961 3.65151 18.1502 5.5374 18.1141 7.89175C18.1021 8.77463 18.3544 9.60346 18.8048 10.2881L26.5405 6.97884C26.1081 5.12298 24.4505 3.72358 22.4505 3.68755ZM19.8859 8.22809C19.8739 8.13199 19.8679 8.02989 19.8679 7.92779C19.8919 6.5404 21.033 5.42929 22.4204 5.45331C23.1772 5.46532 23.8499 5.80767 24.3003 6.34821L19.8859 8.22809ZM28.973 1.76562V10.0119L30.4024 10.6065L29.7237 12.2341L28.3063 11.6455C27.988 11.5074 27.7718 11.2972 27.6096 11.0569C27.4535 10.8167 27.3333 10.4803 27.3333 10.0359V1.76562H28.973Z" fill="currentColor"/><path d="M34.1321 5.57925C34.3844 5.49516 34.6487 5.45312 34.9309 5.45312C36.1502 5.45312 37.1592 6.31798 37.3934 7.46513L39.1171 7.11078C38.7207 5.15882 36.997 3.69336 34.9309 3.69336C34.4565 3.69336 34 3.77144 33.5796 3.90958L34.1321 5.57925ZM32.0961 11.1588L33.2613 9.84351C32.7387 9.38105 32.4144 8.70837 32.4144 7.95762C32.4144 7.20687 32.7448 6.5342 33.2613 6.07774L32.0961 4.76243C31.2132 5.54321 30.6547 6.69036 30.6547 7.96363C30.6547 9.2369 31.2132 10.378 32.0961 11.1588ZM37.3934 8.46813C37.1592 9.61528 36.1442 10.4801 34.9309 10.4801C34.6547 10.4801 34.3844 10.4321 34.1321 10.348L33.5736 12.0177C34 12.1618 34.4565 12.2399 34.9309 12.2399C36.997 12.2399 38.7207 10.7744 39.1171 8.82249L37.3934 8.46813Z" fill="currentColor"/></symbol>
	<symbol id="Mastercard" xmlns="http://www.w3.org/2000/svg" viewBox="0 0 26 20" fill="none" stroke="currentColor"><g clip-path="url(#clip0_81_156)"><path d="M4.77191 19.9552V18.6263C4.77191 18.1167 4.46174 17.7846 3.95265 17.7846C3.68527 17.7846 3.39918 17.8734 3.19971 18.159C3.04463 17.9151 2.82538 17.7846 2.49116 17.7846C2.36689 17.7793 2.24323 17.8048 2.13124 17.8589C2.01926 17.913 1.92244 17.9941 1.84944 18.0948V17.8274H1.42859V19.9536H1.84944V18.737C1.84944 18.3627 2.07083 18.1836 2.381 18.1836C2.69116 18.1836 2.86816 18.383 2.86816 18.737V19.9552H3.28902V18.737C3.28902 18.3627 3.51041 18.1836 3.82057 18.1836C4.13073 18.1836 4.30773 18.383 4.30773 18.737V19.9552H4.77191ZM11.6821 17.8509H10.9067V17.2092H10.4869V17.8509H10.0441V18.2253H10.4869V19.2242C10.4869 19.7114 10.6639 19.9996 11.1954 19.9996C11.3968 19.9954 11.5941 19.9422 11.7703 19.8445L11.6371 19.4702C11.5177 19.5449 11.3791 19.5833 11.2382 19.5809C11.0168 19.5809 10.9061 19.4477 10.9061 19.2263V18.2082H11.6815V17.8536L11.6821 17.8509ZM15.6243 17.7846C15.5097 17.7821 15.3964 17.8093 15.2954 17.8637C15.1945 17.918 15.1093 17.9977 15.0484 18.0948V17.8274H14.6275V19.9536H15.0484V18.7595C15.0484 18.405 15.2254 18.1836 15.5136 18.1836C15.6109 18.1875 15.7074 18.2024 15.8013 18.2279L15.9345 17.829C15.8329 17.8034 15.729 17.7885 15.6243 17.7846ZM9.66656 18.006C9.44517 17.8509 9.13501 17.7846 8.80292 17.7846C8.27137 17.7846 7.93928 18.0285 7.93928 18.4493C7.93928 18.8039 8.18314 19.0028 8.64784 19.0697L8.86923 19.0916C9.11308 19.136 9.26816 19.2247 9.26816 19.3354C9.26816 19.4905 9.09116 19.6028 8.75854 19.6028C8.50456 19.608 8.2558 19.5303 8.04998 19.3814L7.82859 19.7135C8.13875 19.9349 8.51522 19.9809 8.73768 19.9809C9.358 19.9809 9.69009 19.6932 9.69009 19.2943C9.69009 18.9199 9.42271 18.7408 8.95907 18.6739L8.73768 18.652C8.53822 18.6301 8.36335 18.5632 8.36335 18.4306C8.36335 18.2755 8.54036 18.1632 8.78421 18.1632C9.05159 18.1632 9.31576 18.2739 9.44891 18.3402L9.66656 18.006ZM16.0896 18.8921C16.0896 19.5338 16.5104 19.9996 17.197 19.9996C17.5072 19.9996 17.7286 19.9333 17.95 19.7558L17.7286 19.4237C17.5718 19.5506 17.3768 19.6209 17.1751 19.6231C16.8008 19.6231 16.5104 19.3354 16.5104 18.9146C16.5104 18.4937 16.797 18.2082 17.1751 18.2082C17.3768 18.2104 17.5718 18.2807 17.7286 18.4076L17.95 18.0755C17.7286 17.8985 17.5072 17.8317 17.197 17.8317C16.5323 17.7873 16.0896 18.2525 16.0896 18.8948V18.8921ZM13.1216 17.7846C12.5013 17.7846 12.0805 18.2274 12.0805 18.8921C12.0805 19.5568 12.5232 19.9996 13.1655 19.9996C13.4779 20.0062 13.7831 19.9046 14.0291 19.7119L13.8077 19.4017C13.6298 19.5396 13.4125 19.6172 13.1874 19.6231C12.8997 19.6231 12.5896 19.4461 12.5457 19.0697H14.1184V18.8927C14.1184 18.2279 13.7195 17.7852 13.1216 17.7852V17.7846ZM13.0997 18.1836C13.4099 18.1836 13.6313 18.383 13.6532 18.7151H12.5019C12.5682 18.405 12.7692 18.1836 13.0997 18.1836ZM7.36335 18.8921V17.829H6.94249V18.0964C6.78741 17.8969 6.56816 17.7862 6.25586 17.7862C5.658 17.7862 5.21469 18.2515 5.21469 18.8937C5.21469 19.536 5.65747 20.0012 6.25586 20.0012C6.56602 20.0012 6.78741 19.8905 6.94249 19.691V19.9584H7.36335V18.8921ZM5.658 18.8921C5.658 18.4932 5.90185 18.1836 6.32271 18.1836C6.72164 18.1836 6.96442 18.4937 6.96442 18.8921C6.96442 19.313 6.69704 19.6007 6.32271 19.6007C5.90185 19.6226 5.658 19.2905 5.658 18.8921ZM22.0259 17.7846C21.9113 17.7821 21.798 17.8093 21.697 17.8637C21.5961 17.918 21.5109 17.9977 21.45 18.0948V17.8274H21.0291V19.9536H21.4495V18.7595C21.4495 18.405 21.6265 18.1836 21.9147 18.1836C22.012 18.1875 22.1085 18.2024 22.2024 18.2279L22.3355 17.829C22.234 17.8034 22.13 17.7885 22.0254 17.7846H22.0259ZM20.3869 18.8921V17.829H19.966V18.0964C19.8109 17.8969 19.5917 17.7862 19.2794 17.7862C18.6815 17.7862 18.2382 18.2515 18.2382 18.8937C18.2382 19.536 18.681 20.0012 19.2794 20.0012C19.5896 20.0012 19.8109 19.8905 19.966 19.691V19.9584H20.3869V18.8921ZM18.6815 18.8921C18.6815 18.4932 18.9254 18.1836 19.3462 18.1836C19.7452 18.1836 19.988 18.4937 19.988 18.8921C19.988 19.313 19.7206 19.6007 19.3462 19.6007C18.9254 19.6226 18.6815 19.2905 18.6815 18.8921ZM24.6618 18.8921V16.9873H24.2409V18.0948C24.0858 17.8953 23.8666 17.7846 23.5543 17.7846C22.9564 17.7846 22.5131 18.2499 22.5131 18.8921C22.5131 19.5344 22.9559 19.9996 23.5543 19.9996C23.8644 19.9996 24.0858 19.8889 24.2409 19.6894V19.9568H24.6618V18.8921ZM22.9564 18.8921C22.9564 18.4932 23.2003 18.1836 23.6211 18.1836C24.02 18.1836 24.2628 18.4937 24.2628 18.8921C24.2628 19.313 23.9954 19.6007 23.6211 19.6007C23.1997 19.6231 22.9559 19.291 22.9559 18.8921H22.9564Z" fill="currentColor"/><path d="M9.95478 7.97327C9.95505 6.76731 10.2281 5.57704 10.7536 4.49159C11.279 3.40613 12.0433 2.45361 12.989 1.70535C11.8128 0.780601 10.4002 0.205442 8.9126 0.045623C7.42499 -0.114196 5.92242 0.147775 4.57667 0.801588C3.23091 1.4554 2.09627 2.47468 1.30244 3.74289C0.508619 5.01111 0.0876465 6.47709 0.0876465 7.97327C0.0876465 9.46944 0.508619 10.9354 1.30244 12.2036C2.09627 13.4719 3.23091 14.4911 4.57667 15.1449C5.92242 15.7988 7.42499 16.0607 8.9126 15.9009C10.4002 15.7411 11.8128 15.1659 12.989 14.2412C12.0433 13.4929 11.279 12.5404 10.7536 11.4549C10.2281 10.3695 9.95505 9.17922 9.95478 7.97327Z" fill="currentColor"/><path d="M25.9019 7.97297C25.9029 9.46805 25.4832 10.9333 24.6907 12.201C23.8982 13.4688 22.7648 14.4879 21.4203 15.1418C20.0758 15.7957 18.5744 16.0579 17.0879 15.8986C15.6013 15.7393 14.1896 15.1648 13.0142 14.2409C13.9601 13.4928 14.7245 12.5403 15.25 11.4548C15.7755 10.3693 16.0485 9.17898 16.0485 7.97297C16.0485 6.76696 15.7755 5.5766 15.25 4.4911C14.7245 3.4056 13.9601 2.45312 13.0142 1.70506C14.1896 0.781104 15.6013 0.20662 17.0879 0.0473072C18.5744 -0.112005 20.0758 0.150287 21.4203 0.804186C22.7648 1.45808 23.8982 2.47719 24.6907 3.74493C25.4832 5.01268 25.9029 6.47789 25.9019 7.97297Z" fill="currentColor" fill-opacity="0.4"/><path fill-rule="evenodd" clip-rule="evenodd" d="M13.0141 1.70508H12.989C12.0432 2.45333 11.279 3.40585 10.7536 4.49131C10.2281 5.57677 9.95504 6.76704 9.95477 7.97299C9.95504 9.17894 10.2281 10.3692 10.7536 11.4547C11.279 12.5401 12.0433 13.4926 12.989 14.2409H13.0141C13.0141 14.2409 13.0141 14.2409 13.0141 14.2409C13.9601 13.4928 14.7245 12.5404 15.25 11.4549C15.7755 10.3694 16.0484 9.17899 16.0484 7.97299C16.0484 6.76698 15.7755 5.57661 15.25 4.49111C14.7245 3.40561 13.9601 2.45314 13.0141 1.70508Z" fill="currentColor" fill-opacity="0.6"/></g><defs><clipPath id="clip0_81_156"><rect width="25.8027" height="20" fill="white" transform="translate(0.0986328)"/></clipPath></defs></symbol>
	<symbol id="Visa" xmlns="http://www.w3.org/2000/svg" viewBox="0 0 40 12" fill="none" stroke="currentColor"><path d="M14.2514 11.8628L16.2325 0.237305H19.4012L17.4187 11.8628H14.2514Z" fill="currentColor"/><path d="M28.8667 0.488266C28.2389 0.252744 27.2552 0 26.0267 0C22.8956 0 20.6902 1.57674 20.6714 3.83653C20.6537 5.50698 22.2459 6.43886 23.4479 6.99494C24.6813 7.56486 25.0959 7.92824 25.09 8.437C25.0821 9.21631 24.105 9.57221 23.1942 9.57221C21.926 9.57221 21.2522 9.39601 20.2115 8.96208L19.8031 8.77728L19.3585 11.3797C20.0986 11.7043 21.4671 11.9854 22.8882 12C26.2191 12 28.3815 10.4413 28.4061 8.02807C28.4179 6.70556 27.5737 5.69921 25.7455 4.86948C24.638 4.33169 23.9597 3.97282 23.9669 3.42826C23.9669 2.94504 24.541 2.42833 25.7816 2.42833C26.8177 2.41223 27.5684 2.6382 28.1533 2.87372L28.4372 3.00787L28.8667 0.488266Z" fill="currentColor"/><path d="M37.0208 0.237305H34.5723C33.8138 0.237305 33.2461 0.444322 32.913 1.20137L28.2071 11.8552H31.5345C31.5345 11.8552 32.0785 10.4228 32.2015 10.1082C32.5651 10.1082 35.7976 10.1132 36.2597 10.1132C36.3545 10.5202 36.6452 11.8552 36.6452 11.8552H39.5855L37.0208 0.237305ZM33.136 7.74409C33.3981 7.07428 34.3985 4.49428 34.3985 4.49428C34.3798 4.52522 34.6587 3.82121 34.8186 3.38473L35.0328 4.38703C35.0328 4.38703 35.6395 7.16205 35.7663 7.74391H33.136V7.74409Z" fill="currentColor"/><path d="M0.45503 0.237305L0.414551 0.479138C1.66716 0.782359 2.78593 1.22123 3.76542 1.76717L6.57706 11.8441L9.92966 11.8404L14.9183 0.237305H11.5615L8.45929 8.16502L8.12885 6.55384C8.11337 6.50406 8.09654 6.4542 8.07932 6.40422L7.00087 1.21879C6.80912 0.482646 6.25282 0.262959 5.56461 0.237305H0.45503Z" fill="currentColor"/></symbol>		
	<symbol id="Pix" viewBox="0 0 512 512" xmlns="http://www.w3.org/2000/svg" fill="none" stroke="currentColor"> <defs/> <g fill="currentColor" fill-rule="evenodd"> <path d="M393.072 391.897c-20.082 0-38.969-7.81-53.176-22.02l-77.069-77.067c-5.375-5.375-14.773-5.395-20.17 0l-76.784 76.786c-14.209 14.207-33.095 22.019-53.179 22.019h-9.247l97.521 97.52c30.375 30.375 79.614 30.375 109.988 0l97.239-97.238h-15.123zm-105.049 74.327c-8.55 8.53-19.93 13.25-32.05 13.25h-.02c-12.12 0-23.522-4.721-32.05-13.25l-56.855-56.855c7.875-4.613 15.165-10.248 21.758-16.84l63.948-63.948 64.23 64.23c7.637 7.66 16.188 14.013 25.478 18.952l-54.439 54.46zM310.958 22.78c-30.374-30.374-79.613-30.374-109.988 0l-97.52 97.52h9.247c20.082 0 38.97 7.834 53.178 22.02l76.784 76.785c5.57 5.592 14.622 5.57 20.17 0l77.069-77.068c14.207-14.187 33.094-22.02 53.176-22.02h15.123l-97.239-97.237zm6.028 96.346l-64.23 64.23-63.97-63.97c-6.593-6.592-13.86-12.206-21.736-16.818l56.853-56.877c17.69-17.645 46.476-17.668 64.121 0l54.44 54.461c-9.292 4.961-17.842 11.315-25.479 18.974h.001z"/> <path d="M489.149 200.97l-58.379-58.377h-37.706c-13.838 0-27.394 5.635-37.185 15.426l-77.068 77.069c-7.202 7.18-16.623 10.77-26.067 10.77-9.443 0-18.885-3.59-26.066-10.77l-76.785-76.785c-9.792-9.814-23.346-15.427-37.207-15.427h-31.81L22.78 200.97c-30.374 30.375-30.374 79.614 0 109.988l58.095 58.074 31.81.021c13.86 0 27.416-5.635 37.208-15.426l76.784-76.764c13.925-13.947 38.208-13.924 52.133-.02l77.068 77.066c9.791 9.792 23.346 15.405 37.185 15.405h37.706l58.379-58.356c30.374-30.374 30.374-79.613 0-109.988zm-362.19 129.724c-3.763 3.786-8.942 5.917-14.273 5.917H94.302l-48.59-48.564c-17.689-17.69-17.689-46.476 0-64.143L94.3 175.296h18.385c5.331 0 10.51 2.154 14.295 5.918l74.74 74.74-74.761 74.74zm339.257-42.647l-48.848 48.87h-24.305c-5.309 0-10.508-2.155-14.251-5.92l-75.023-75.043 75.023-75.023c3.743-3.764 8.942-5.918 14.252-5.918h24.304l48.847 48.891c8.573 8.551 13.273 19.93 13.273 32.05 0 12.141-4.7 23.52-13.273 32.093z"/> </g> </symbol>
	<symbol id="Facebook" xmlns="http://www.w3.org/2000/svg" viewBox="0 0 24 24" stroke="currentColor" fill="none" stroke-linecap="round" stroke-linejoin="round"><path stroke="none" d="M0 0h24v24H0z" fill="none" /><path d="M7 10v4h3v7h4v-7h3l1 -4h-4v-2a1 1 0 0 1 1 -1h3v-4h-3a5 5 0 0 0 -5 5v2h-3" /></symbol>
	<symbol id="Instagram" xmlns="http://www.w3.org/2000/svg" viewBox="0 0 32 32" fill="currentColor" stroke-linecap="round" stroke-linejoin="round"><path fill-rule="evenodd" clip-rule="evenodd" d="M10.6667 6.66667C9.6058 6.66667 8.58838 7.08809 7.83824 7.83824C7.08809 8.58838 6.66667 9.6058 6.66667 10.6667V21.3333C6.66667 22.3942 7.08809 23.4116 7.83824 24.1618C8.58839 24.9119 9.6058 25.3333 10.6667 25.3333H21.3333C22.3942 25.3333 23.4116 24.9119 24.1618 24.1618C24.9119 23.4116 25.3333 22.3942 25.3333 21.3333V10.6667C25.3333 9.6058 24.9119 8.58839 24.1618 7.83824C23.4116 7.08809 22.3942 6.66667 21.3333 6.66667H10.6667ZM5.95262 5.95262C7.20286 4.70238 8.89856 4 10.6667 4H21.3333C23.1014 4 24.7971 4.70238 26.0474 5.95262C27.2976 7.20286 28 8.89856 28 10.6667V21.3333C28 23.1014 27.2976 24.7971 26.0474 26.0474C24.7971 27.2976 23.1014 28 21.3333 28H10.6667C8.89856 28 7.20286 27.2976 5.95262 26.0474C4.70238 24.7971 4 23.1014 4 21.3333V10.6667C4 8.89856 4.70238 7.20286 5.95262 5.95262Z"/><path fill-rule="evenodd" clip-rule="evenodd" d="M12.2288 12.2286C13.229 11.2284 14.5856 10.6665 16.0001 10.6665C17.4146 10.6665 18.7711 11.2284 19.7713 12.2286C20.7715 13.2288 21.3334 14.5854 21.3334 15.9998C21.3334 17.4143 20.7715 18.7709 19.7713 19.7711C18.7711 20.7713 17.4146 21.3332 16.0001 21.3332C14.5856 21.3332 13.229 20.7713 12.2288 19.7711C11.2287 18.7709 10.6667 17.4143 10.6667 15.9998C10.6667 14.5854 11.2287 13.2288 12.2288 12.2286ZM16.0001 13.3332C15.2928 13.3332 14.6146 13.6141 14.1145 14.1142C13.6144 14.6143 13.3334 15.2926 13.3334 15.9998C13.3334 16.7071 13.6144 17.3854 14.1145 17.8855C14.6146 18.3856 15.2928 18.6665 16.0001 18.6665C16.7073 18.6665 17.3856 18.3856 17.8857 17.8855C18.3858 17.3854 18.6667 16.7071 18.6667 15.9998C18.6667 15.2926 18.3858 14.6143 17.8857 14.1142C17.3856 13.6141 16.7073 13.3332 16.0001 13.3332Z"/><path fill-rule="evenodd" clip-rule="evenodd" d="M22.0001 8.6665C22.7365 8.6665 23.3334 9.26346 23.3334 9.99984V10.0132C23.3334 10.7496 22.7365 11.3465 22.0001 11.3465C21.2637 11.3465 20.6667 10.7496 20.6667 10.0132V9.99984C20.6667 9.26346 21.2637 8.6665 22.0001 8.6665Z"/></symbol>
	<symbol id="Tiktok" xmlns="http://www.w3.org/2000/svg" viewBox="0 0 24 24" stroke="currentColor" fill="none" stroke-linecap="round" stroke-linejoin="round"><path stroke="none" d="M0 0h24v24H0z" fill="none" /><path d="M9 12a4 4 0 1 0 4 4v-12a5 5 0 0 0 5 5" /></symbol>
	<symbol id="Truck" xmlns="http://www.w3.org/2000/svg"  viewBox="0 0 36 28" stroke="currentColor" fill="none"><path d="M14 22.333C14 24.174 12.5077 25.6663 10.6667 25.6663C8.82576 25.6663 7.33337 24.174 7.33337 22.333M14 22.333C14 20.4921 12.5077 18.9997 10.6667 18.9997C8.82576 18.9997 7.33337 20.4921 7.33337 22.333M14 22.333H24M7.33337 22.333H4.00004V15.6663M30.6667 22.333C30.6667 24.174 29.1743 25.6663 27.3334 25.6663C25.4924 25.6663 24 24.174 24 22.333M30.6667 22.333C30.6667 20.4921 29.1743 18.9997 27.3334 18.9997C25.4924 18.9997 24 20.4921 24 22.333M30.6667 22.333H34V12.333M2.33337 2.33301H20.6667V22.333M34 12.333H20.6667M34 12.333L29 3.99967H20.6667M4.00004 8.99967H10.6667" stroke-linecap="round" stroke-linejoin="round"/></symbol>
	<symbol id="Discount" xmlns="http://www.w3.org/2000/svg" viewBox="0 0 34 34" stroke="currentColor" fill="none"><path d="M12 21.9998L22 11.9998M13.6667 12.8332C13.6667 13.2934 13.2936 13.6665 12.8333 13.6665C12.3731 13.6665 12 13.2934 12 12.8332C12 12.3729 12.3731 11.9998 12.8333 11.9998C13.2936 11.9998 13.6667 12.3729 13.6667 12.8332ZM22 21.1665C22 21.6267 21.6269 21.9998 21.1667 21.9998C20.7064 21.9998 20.3333 21.6267 20.3333 21.1665C20.3333 20.7063 20.7064 20.3332 21.1667 20.3332C21.6269 20.3332 22 20.7063 22 21.1665ZM5.33334 8.99979C5.33334 8.02733 5.71965 7.0947 6.40728 6.40707C7.09491 5.71943 8.02755 5.33313 9.00001 5.33313H10.6667C11.6348 5.33257 12.5635 4.94913 13.25 4.26646L14.4167 3.09979C14.7574 2.75713 15.1625 2.4852 15.6087 2.29964C16.0549 2.11408 16.5334 2.01855 17.0167 2.01855C17.4999 2.01855 17.9784 2.11408 18.4246 2.29964C18.8708 2.4852 19.2759 2.75713 19.6167 3.09979L20.7833 4.26646C21.4699 4.94913 22.3985 5.33257 23.3667 5.33313H25.0333C26.0058 5.33313 26.9384 5.71943 27.6261 6.40707C28.3137 7.0947 28.7 8.02733 28.7 8.99979V10.6665C28.7006 11.6346 29.084 12.5633 29.7667 13.2498L30.9333 14.4165C31.276 14.7572 31.5479 15.1623 31.7335 15.6085C31.9191 16.0547 32.0146 16.5332 32.0146 17.0165C32.0146 17.4997 31.9191 17.9782 31.7335 18.4244C31.5479 18.8706 31.276 19.2757 30.9333 19.6165L29.7667 20.7831C29.084 21.4696 28.7006 22.3983 28.7 23.3665V25.0331C28.7 26.0056 28.3137 26.9382 27.6261 27.6259C26.9384 28.3135 26.0058 28.6998 25.0333 28.6998H23.3667C22.3985 28.7003 21.4699 29.0838 20.7833 29.7665L19.6167 30.9331C19.2759 31.2758 18.8708 31.5477 18.4246 31.7333C17.9784 31.9188 17.4999 32.0144 17.0167 32.0144C16.5334 32.0144 16.0549 31.9188 15.6087 31.7333C15.1625 31.5477 14.7574 31.2758 14.4167 30.9331L13.25 29.7665C12.5635 29.0838 11.6348 28.7003 10.6667 28.6998H9.00001C8.02755 28.6998 7.09491 28.3135 6.40728 27.6259C5.71965 26.9382 5.33334 26.0056 5.33334 25.0331V23.3665C5.33279 22.3983 4.94934 21.4696 4.26667 20.7831L3.10001 19.6165C2.75734 19.2757 2.48541 18.8706 2.29985 18.4244C2.11429 17.9782 2.01877 17.4997 2.01877 17.0165C2.01877 16.5332 2.11429 16.0547 2.29985 15.6085C2.48541 15.1623 2.75734 14.7572 3.10001 14.4165L4.26667 13.2498C4.94934 12.5633 5.33279 11.6346 5.33334 10.6665V8.99979Z" stroke-linecap="round" stroke-linejoin="round"/></symbol>
	<symbol id="Return" xmlns="http://www.w3.org/2000/svg" viewBox="0 0 34 30" stroke="currentColor" fill="none"><path d="M32 6.66699H2M32 6.66699L27 11.667M32 6.66699L27 1.66699M7 28.3337L2 23.3337M2 23.3337L7 18.3337M2 23.3337H32" stroke-linecap="round" stroke-linejoin="round"/></symbol>			
	<symbol id="CreditCard" xmlns="http://www.w3.org/2000/svg" viewBox="0 0 34 28" stroke="currentColor" fill="none"><path d="M2 10.6663H32M8.66667 18.9997H8.68333M15.3333 18.9997H18.6667M7 2.33301H27C29.7614 2.33301 32 4.57158 32 7.33301V20.6663C32 23.4278 29.7614 25.6663 27 25.6663H7C4.23858 25.6663 2 23.4278 2 20.6663V7.33301C2 4.57158 4.23858 2.33301 7 2.33301Z" stroke-linecap="round" stroke-linejoin="round"/></symbol>		
	<symbol id="Deco" xmlns="http://www.w3.org/2000/svg" viewBox="0 0 58 20" stroke="currentColor" fill="none"><path d="M49.5359 16.9432C47.3666 16.9432 46.9948 14.8019 47.6797 12.7178C48.2221 11.0615 49.5066 9.31991 51.4201 9.31991C53.676 9.31991 53.9039 11.6038 53.247 13.6026C52.6753 15.3162 51.3908 16.9432 49.5359 16.9432ZM48.879 19.9973C52.6473 19.9973 56.0159 17.9133 57.3578 14.1449C58.7569 10.1767 57.1859 6.2085 52.0477 6.2085C47.9369 6.2085 44.7962 8.77758 43.5969 12.1755C42.2551 16.0011 43.7115 19.9973 48.879 19.9973ZM36.3747 19.9973C37.8591 19.9973 39.3729 19.6829 40.4282 19.2271C40.8 18.1998 40.828 17.2004 40.5428 16.201C39.8006 16.4862 38.7732 16.7727 37.7165 16.7727C34.861 16.7727 34.6051 14.6606 35.2048 12.8617C35.8617 10.9496 37.574 9.40786 40.287 9.40786C41.0012 9.40786 41.6861 9.52246 42.1138 9.77963C42.856 8.78025 43.2838 7.78086 43.3704 6.7535C42.7428 6.46834 41.6861 6.21117 40.3163 6.21117C35.863 6.21117 32.3505 8.80956 31.0953 12.406C29.896 15.8039 30.8101 20 36.3774 20L36.3747 19.9973ZM21.0442 11.8037C21.8143 10.0901 23.0136 9.09206 24.5846 9.09206C25.9838 9.09206 26.2116 9.86225 25.9838 10.4619C25.6413 11.2894 24.47 11.8037 21.0442 11.8037ZM22.2714 19.9973C23.7278 19.9973 25.7826 19.7122 27.4962 18.8554C27.7813 17.9133 27.7534 16.9712 27.4389 15.9998C26.3542 16.5421 24.8405 16.8566 23.4707 16.8566C21.4439 16.8566 20.3299 16.1997 20.3592 14.5447C25.8972 14.6873 28.7807 13.6879 29.7228 11.2334C30.6649 8.7496 29.0379 6.2085 25.1829 6.2085C21.0721 6.2085 18.046 9.14935 16.932 12.3181C15.7621 15.6867 16.5043 19.9973 22.2701 19.9973H22.2714ZM5.72293 19.9973C9.52059 19.9973 11.6806 18.2557 14.1924 12.9177C15.5622 9.97684 16.7335 7.09329 18.0753 4.23905L19.6743 4.7534C20.1021 4.89598 20.3313 4.6388 20.1314 4.23905L18.1899 0.270827C18.0473 -0.0143302 17.7329 -0.0436454 17.533 0.0429678L12.708 1.86984C12.3082 2.01242 12.3362 2.38419 12.7359 2.49745L14.1631 2.95451C12.9931 5.6102 11.5367 9.60641 10.3654 12.1182C9.05155 14.9165 8.39595 16.8859 6.16933 16.8859C3.9427 16.8859 3.57093 15.1443 4.51301 12.6605C5.59768 9.77697 7.42455 8.92016 9.5086 9.51979C10.0802 8.72028 10.508 7.52103 10.6785 6.43636C10.0789 6.26447 9.36469 6.2085 8.76639 6.2085C5.3978 6.2085 2.05719 7.95009 0.687373 11.6038C-1.0822 16.3143 0.554122 19.9973 5.7216 19.9973H5.72293Z" fill="currentColor"/></symbol>
	<symbol id="Discord" xmlns="http://www.w3.org/2000/svg" viewBox="0 0 127.14 96.36" stroke="currentColor" fill="none"><g id="图层_2" data-name="图层 2"><g id="Discord_Logos" data-name="Discord Logos"><g id="Discord_Logo_-_Large_-_White" data-name="Discord Logo - Large - White"><path class="cls-1" d="M107.7,8.07A105.15,105.15,0,0,0,81.47,0a72.06,72.06,0,0,0-3.36,6.83A97.68,97.68,0,0,0,49,6.83,72.37,72.37,0,0,0,45.64,0,105.89,105.89,0,0,0,19.39,8.09C2.79,32.65-1.71,56.6.54,80.21h0A105.73,105.73,0,0,0,32.71,96.36,77.7,77.7,0,0,0,39.6,85.25a68.42,68.42,0,0,1-10.85-5.18c.91-.66,1.8-1.34,2.66-2a75.57,75.57,0,0,0,64.32,0c.87.71,1.76,1.39,2.66,2a68.68,68.68,0,0,1-10.87,5.19,77,77,0,0,0,6.89,11.1A105.25,105.25,0,0,0,126.6,80.22h0C129.24,52.84,122.09,29.11,107.7,8.07ZM42.45,65.69C36.18,65.69,31,60,31,53s5-12.74,11.43-12.74S54,46,53.89,53,48.84,65.69,42.45,65.69Zm42.24,0C78.41,65.69,73.25,60,73.25,53s5-12.74,11.44-12.74S96.23,46,96.12,53,91.08,65.69,84.69,65.69Z"/></g></g></g></symbol>
	<symbol id="FilterList" xmlns="http://www.w3.org/2000/svg" viewBox="0 0 16 16" fill="none"><path d="M6.66667 12H9.33333V10.6667H6.66667V12ZM2 4V5.33333H14V4H2ZM4 8.66667H12V7.33333H4V8.66667Z" fill="currentColor"/></symbol>
	<symbol id="ChevronUp" xmlns="http://www.w3.org/2000/svg" viewBox="0 0 16 16" stroke="currentColor" fill="none"><path fill-rule="evenodd" clip-rule="evenodd" d="M7.52851 5.52827C7.78886 5.26792 8.21097 5.26792 8.47132 5.52827L12.4713 9.52827C12.7317 9.78862 12.7317 10.2107 12.4713 10.4711C12.211 10.7314 11.7889 10.7314 11.5285 10.4711L7.99992 6.94248L4.47132 10.4711C4.21097 10.7314 3.78886 10.7314 3.52851 10.4711C3.26816 10.2107 3.26816 9.78862 3.52851 9.52827L7.52851 5.52827Z" fill="black"/></symbol>
	<symbol id="Trash" width="20" height="20" viewBox="0 0 20 20" fill="none" xmlns="http://www.w3.org/2000/svg"><path fill-rule="evenodd" clip-rule="evenodd" d="M7.15482 2.15483C7.46738 1.84227 7.89131 1.66667 8.33333 1.66667H11.6667C12.1087 1.66667 12.5326 1.84227 12.8452 2.15483C13.1577 2.46739 13.3333 2.89131 13.3333 3.33334V5H15.8236C15.8295 4.99994 15.8353 4.99994 15.8412 5H16.6667C17.1269 5 17.5 5.3731 17.5 5.83334C17.5 6.29357 17.1269 6.66667 16.6667 6.66667H16.6001L15.833 15.8715C15.8231 16.5207 15.5609 17.1413 15.1011 17.6011C14.6323 18.0699 13.9964 18.3333 13.3333 18.3333H6.66667C6.00362 18.3333 5.36774 18.0699 4.8989 17.6011C4.43906 17.1413 4.17685 16.5207 4.16696 15.8715L3.39989 6.66667H3.33333C2.8731 6.66667 2.5 6.29357 2.5 5.83334C2.5 5.3731 2.8731 5 3.33333 5H4.15878C4.16467 4.99994 4.17055 4.99994 4.17641 5H6.66667V3.33334C6.66667 2.89131 6.84226 2.46739 7.15482 2.15483ZM5.07233 6.66667L5.83045 15.7641C5.83237 15.7871 5.83333 15.8102 5.83333 15.8333C5.83333 16.0543 5.92113 16.2663 6.07741 16.4226C6.23369 16.5789 6.44565 16.6667 6.66667 16.6667H13.3333C13.5543 16.6667 13.7663 16.5789 13.9226 16.4226C14.0789 16.2663 14.1667 16.0543 14.1667 15.8333C14.1667 15.8102 14.1676 15.7871 14.1695 15.7641L14.9277 6.66667H5.07233ZM11.6667 5H8.33333V3.33334H11.6667V5ZM8.33333 8.33334C8.79357 8.33334 9.16667 8.70643 9.16667 9.16667V14.1667C9.16667 14.6269 8.79357 15 8.33333 15C7.8731 15 7.5 14.6269 7.5 14.1667V9.16667C7.5 8.70643 7.8731 8.33334 8.33333 8.33334ZM11.6667 8.33334C12.1269 8.33334 12.5 8.70643 12.5 9.16667V14.1667C12.5 14.6269 12.1269 15 11.6667 15C11.2064 15 10.8333 14.6269 10.8333 14.1667V9.16667C10.8333 8.70643 11.2064 8.33334 11.6667 8.33334Z" fill="currentColor"/></symbol>
	<symbol id="WhatsApp"  xmlns="http://www.w3.org/2000/svg" viewBox="0 0 18 18" fill="none" ><path fill-rule="evenodd" clip-rule="evenodd" d="M13.333 3.94275C12.0977 2.88909 10.5203 2.32246 8.89688 2.34921C7.27345 2.37596 5.71558 2.99425 4.51564 4.08804C3.3157 5.18184 2.55617 6.67594 2.3796 8.28996C2.20302 9.90398 2.62153 11.527 3.5566 12.8543C3.72398 13.0919 3.75547 13.3996 3.63972 13.6661L2.88341 15.408L5.56246 14.9305C5.73665 14.8995 5.9162 14.9247 6.07512 15.0025C7.53336 15.7165 9.20204 15.8737 10.768 15.4448C12.334 15.0158 13.6896 14.0301 14.5804 12.6727C15.4712 11.3152 15.836 9.67933 15.6064 8.07201C15.3767 6.46468 14.5684 4.99641 13.333 3.94275ZM8.86942 0.682773C10.8987 0.649334 12.8704 1.35761 14.4146 2.67469C15.9588 3.99177 16.9692 5.8271 17.2563 7.83626C17.5433 9.84542 17.0873 11.8903 15.9738 13.5871C14.8603 15.2839 13.1658 16.516 11.2083 17.0522C9.34061 17.5638 7.35601 17.4083 5.59455 16.6177L1.64654 17.3213C1.34428 17.3752 1.03687 17.2585 0.846507 17.0176C0.656144 16.7767 0.613663 16.4506 0.735949 16.169L1.93091 13.417C0.947723 11.8367 0.519412 9.96793 0.722814 8.1087C0.943534 6.09118 1.89294 4.22355 3.39287 2.85631C4.8928 1.48907 6.84013 0.716212 8.86942 0.682773ZM6.03312 5.61685C6.26754 5.38243 6.58548 5.25073 6.917 5.25073C7.24852 5.25073 7.56646 5.38243 7.80088 5.61685C8.03531 5.85127 8.167 6.16921 8.167 6.50073V7.33407C8.167 7.66558 8.03531 7.98353 7.80088 8.21795C7.71659 8.30224 7.62149 8.37326 7.51885 8.42964C7.68255 8.89999 7.95113 9.33224 8.30998 9.69109C8.66883 10.0499 9.10107 10.3185 9.57143 10.4822C9.62781 10.3796 9.69882 10.2845 9.78312 10.2002C10.0175 9.96576 10.3355 9.83407 10.667 9.83407H11.5003C11.8319 9.83407 12.1498 9.96576 12.3842 10.2002C12.6186 10.4346 12.7503 10.7525 12.7503 11.0841C12.7503 11.4156 12.6186 11.7335 12.3842 11.9679C12.1498 12.2024 11.8319 12.3341 11.5003 12.3341H10.667C9.34092 12.3341 8.06915 11.8073 7.13147 10.8696C6.19378 9.93192 5.667 8.66015 5.667 7.33407V6.50073C5.667 6.16921 5.79869 5.85127 6.03312 5.61685Z" fill="currentColor"/></symbol>
	<symbol id="ArrowsPointingOut" xmlns="http://www.w3.org/2000/svg" fill="none" viewBox="0 0 24 24"><path stroke-linecap="round" stroke-linejoin="round" d="M3.75 3.75v4.5m0-4.5h4.5m-4.5 0L9 9M3.75 20.25v-4.5m0 4.5h4.5m-4.5 0L9 15M20.25 3.75h-4.5m4.5 0v4.5m0-4.5L15 9m5.25 11.25h-4.5m4.5 0v-4.5m0 4.5L15 15" /></symbol>
	<symbol id="ArrowLeft" xmlns="http://www.w3.org/2000/svg" viewbox="0 0 8 17" fill="none"><path d="M12 4.0271L10.59 5.4371L16.17 11.0271H4V13.0271H16.17L10.59 18.6171L12 20.0271L20 12.0271L12 4.0271Z" fill="currentColor"/></symbol>
	<symbol id="ArrowRight" xmlns="http://www.w3.org/2000/svg" viewbox="0 0 8 17" fill="none"><path d="M20 11.0271H7.83L13.42 5.4371L12 4.0271L4 12.0271L12 20.0271L13.41 18.6171L7.83 13.0271H20V11.0271Z" fill="currentColor"/></symbol>
	<symbol id="Diversity" xmlns="http://www.w3.org/2000/svg" viewBox="0 0 70 70" fill="none"><path id="Vector" d="M70.0003 70.0016H67.6722C67.6722 69.6895 67.6766 69.4244 67.6722 69.1607C67.6341 66.9749 67.7703 64.7701 67.517 62.6093C67.0411 58.5674 64.82 55.633 61.2151 53.7681C60.9706 53.6421 60.546 53.6684 60.2883 53.7944C57.4346 55.1862 54.5999 55.1818 51.7403 53.8062C51.4665 53.6743 51.0229 53.6611 50.755 53.7915C49.1985 54.5489 47.8764 55.6227 46.8397 57.0174C46.7123 57.1903 46.683 57.5888 46.7958 57.7646C48.3669 60.2462 49.0623 62.955 49.0067 65.8791C48.9804 67.221 49.0023 68.5644 49.0023 69.9547H46.6684C46.6684 68.5117 46.7445 67.0775 46.6464 65.6564C46.5527 64.3043 46.4444 62.9125 46.0446 61.6321C45.1002 58.6025 43.0987 56.3963 40.2757 54.9342C39.9126 54.7467 39.6432 54.7628 39.2757 54.9474C36.4396 56.3684 33.5859 56.3655 30.7512 54.943C30.3837 54.7584 30.1143 54.7423 29.7541 54.9401C25.8344 57.0965 23.6572 60.3825 23.4024 64.8639C23.3072 66.5413 23.3863 68.2275 23.3863 69.9576H21.0802C20.9455 65.7414 20.7112 61.5325 23.256 57.8217C23.4815 57.4935 23.42 57.2767 23.196 56.9823C22.1242 55.5773 20.7815 54.5094 19.1987 53.7505C18.9776 53.645 18.613 53.6465 18.392 53.7563C15.4768 55.2067 12.5806 55.2023 9.66099 53.7578C9.41647 53.6362 8.98746 53.6743 8.73855 53.8106C4.80573 55.948 2.66216 59.2706 2.39275 63.7358C2.2844 65.5524 2.36786 67.3807 2.36493 69.2032C2.36493 69.4478 2.36493 69.6925 2.36493 69.9708H0.13643C0.111539 69.9401 0.0602924 69.9064 0.0602924 69.8712C0.117396 66.9617 -0.266222 64.0288 0.389735 61.1531C1.27996 57.2533 3.47332 54.2603 6.87756 52.158C6.99177 52.0877 7.09866 52.0042 7.20993 51.9251C3.06335 47.1991 4.58464 41.2556 7.96692 38.4135C11.6625 35.3092 16.9834 35.4469 20.477 38.7681C23.8197 41.9456 24.6426 47.6298 20.8518 51.89C21.6044 52.4335 22.3848 52.9433 23.1008 53.5322C23.8007 54.1079 24.4361 54.7643 25.1009 55.3854C26.0614 54.65 27.0995 53.856 28.183 53.0253C26.1419 50.7224 25.3 48.0077 25.8652 44.9166C26.2737 42.6796 27.407 40.8483 29.1655 39.4127C32.7513 36.4871 37.9155 36.6819 41.3622 39.8317C44.5644 42.7572 45.8265 48.5307 41.8776 53.0502C42.9201 53.8369 43.9655 54.6251 44.9348 55.3576C46.3126 54.1841 47.705 53.0004 49.0946 51.8167C45.1354 47.3075 46.4488 41.4153 49.8896 38.459C53.5296 35.3312 58.9076 35.4308 62.4026 38.7197C65.7936 41.9105 66.6341 47.6107 62.8477 51.8636C63.7262 52.5375 64.6574 53.1557 65.4745 53.8999C67.9782 56.1765 69.4336 59.0215 69.8743 62.3822C69.8919 62.5111 69.9549 62.6342 69.9959 62.7602V70.006L70.0003 70.0016ZM35.0442 53.6641C38.914 53.6362 42.0152 50.507 42.0006 46.6409C41.9874 42.7836 38.8379 39.6471 34.9929 39.6632C31.1172 39.6793 28 42.8598 28.038 46.7596C28.0746 50.5817 31.2285 53.6904 35.0442 53.6626V53.6641ZM14.0301 38.5161C10.172 38.5161 7.0313 41.6497 7.02837 45.5011C7.02545 49.335 10.191 52.4994 14.0287 52.4994C17.8736 52.4994 21.0275 49.3467 21.029 45.5026C21.029 41.6497 17.8897 38.5146 14.0316 38.5146L14.0301 38.5161ZM55.9792 52.5009C59.8212 52.514 62.9897 49.3746 63.0102 45.5319C63.0307 41.6878 59.8988 38.5366 56.0363 38.5176C52.1752 38.4985 49.0433 41.5999 49.0096 45.4748C48.976 49.2984 52.1386 52.4877 55.9792 52.5009Z" fill="white"></path><path id="Vector_2" d="M43.9006 0.00146499C45.1129 0.458541 46.1203 1.13829 46.5025 2.42602C46.7924 2.39086 47.0471 2.33372 47.3004 2.33372C53.2436 2.32933 59.1867 2.3264 65.1299 2.33226C67.3188 2.33519 68.8065 3.76209 68.8196 5.94345C68.846 10.1348 68.8445 14.3276 68.8196 18.5189C68.8065 20.7501 67.3437 22.1491 65.0962 22.1594C64.0947 22.1638 63.0917 22.1872 62.0917 22.1477C61.6246 22.1301 61.4152 22.2839 61.2556 22.7219C60.3054 25.3282 59.3273 27.9256 58.3492 30.5215C58.0432 31.3346 57.4429 31.6716 56.7694 31.4225C56.1983 31.2115 56.0358 30.7237 55.9684 30.1773C55.6815 27.8494 55.393 25.523 55.1031 23.1966C55.0636 22.8816 55.0153 22.5667 54.9582 22.1609H54.2949C51.6535 22.1609 49.0121 22.1491 46.3707 22.177C46.0456 22.1799 45.6679 22.3264 45.4087 22.5271C44.6488 23.116 43.804 23.3504 42.8639 23.349C40.1772 23.3446 37.4904 23.349 34.8036 23.349C34.5605 23.349 34.3175 23.349 33.9983 23.349C34.1828 25.0469 34.3541 26.6481 34.5312 28.2493C34.682 29.6074 34.846 30.9625 34.9939 32.3205C35.0744 33.0589 34.7933 33.576 34.2384 33.7606C33.6322 33.9628 33.1051 33.7211 32.7259 33.0413C31.0318 30 29.3348 26.9602 27.6642 23.9057C27.4372 23.4911 27.1927 23.3241 26.7154 23.3343C25.8076 23.3548 24.8866 23.3797 23.992 23.2493C23.4341 23.1688 22.9202 22.8011 22.3799 22.5798C22.0022 22.4246 21.6141 22.1902 21.2261 22.1784C19.5892 22.133 17.9507 22.1594 16.2376 22.1594C16.078 23.3739 15.9184 24.562 15.7691 25.7501C15.5773 27.2634 15.3899 28.7767 15.2083 30.2915C15.1322 30.9244 14.8525 31.3786 14.1819 31.465C13.5172 31.55 13.1101 31.2072 12.8846 30.6021C11.9285 28.0457 10.9709 25.4908 10.0119 22.9358C9.91673 22.6824 9.81131 22.4319 9.70296 22.1579C7.72338 22.1579 5.76722 22.1623 3.8096 22.1579C1.47128 22.1521 0.0407699 20.7076 0.0393057 18.3534C0.0363773 14.2748 0.0363773 10.1978 0.0393057 6.11925C0.0407699 3.7826 1.49178 2.33226 3.83595 2.33079C9.41452 2.32786 14.9931 2.32493 20.5716 2.33812C21.027 2.33812 21.3023 2.25022 21.516 1.79021C21.9656 0.821858 22.8719 0.372107 23.8148 0H43.9021L43.9006 0.00146499ZM31.8884 26.7155C31.9279 26.7009 31.966 26.6862 32.0055 26.6701C31.8635 25.3457 31.7185 24.0214 31.5824 22.6956C31.452 21.4137 31.8239 21.0108 33.1388 21.0108C36.3717 21.0079 39.6047 21.0138 42.8376 21.0079C43.9387 21.005 44.3311 20.6153 44.3325 19.5327C44.3354 14.2939 44.3354 9.05362 44.3325 3.81483C44.3325 2.72488 43.9387 2.33226 42.8522 2.33226C36.8417 2.32933 30.8312 2.32933 24.8207 2.33226C23.7738 2.33226 23.3726 2.72927 23.3712 3.77527C23.3668 9.0375 23.3668 14.2997 23.3712 19.562C23.3712 20.6065 23.7694 20.9962 24.8251 21.0079C25.8266 21.0196 26.8281 21.0226 27.8311 21.0079C28.4431 20.9991 28.8604 21.2496 29.1503 21.7917C29.6979 22.8142 30.2719 23.8222 30.8371 24.8359C31.187 25.4629 31.537 26.09 31.8884 26.7155ZM57.7123 25.1817C57.7562 25.1905 57.8016 25.1992 57.8455 25.208C58.3931 23.746 58.9525 22.2883 59.4854 20.8219C59.7358 20.1318 60.1868 19.8125 60.9277 19.8242C62.2469 19.8462 63.5676 19.8315 64.8883 19.8301C66.1519 19.8301 66.4916 19.4858 66.4916 18.201C66.493 14.2382 66.493 10.2754 66.4916 6.31263C66.4916 5 66.1475 4.66012 64.8326 4.66012C59.0506 4.66012 53.2699 4.66012 47.4879 4.66012H46.7148V19.8301C47.0091 19.8301 47.2565 19.8301 47.5025 19.8301C50.2566 19.8301 53.0108 19.8271 55.7649 19.8315C56.6683 19.833 57.0563 20.1685 57.1764 21.0533C57.3638 22.4275 57.5351 23.8046 57.7123 25.1817ZM20.9963 4.69528C20.8001 4.68063 20.6654 4.66305 20.5306 4.66159C14.955 4.66159 9.37791 4.65866 3.80227 4.66159C2.78173 4.66159 2.36883 5.09083 2.36737 6.1339C2.36444 10.211 2.36444 14.2866 2.36737 18.3636C2.36737 19.4316 2.77734 19.8271 3.87109 19.8286C5.91949 19.8315 7.9679 19.8286 10.0163 19.8286C11.2023 19.8286 11.3809 19.9575 11.8085 21.09C12.318 22.4421 12.8305 23.7929 13.3415 25.145C13.6504 23.9276 13.8203 22.7234 13.9608 21.5163C14.1307 20.0542 14.3723 19.8286 15.854 19.8271C17.5554 19.8271 19.2568 19.8271 20.9963 19.8271V4.69528Z" fill="white"></path><path id="Vector_3" d="M25.7373 9.2717V7.03174H37.3103V9.2717H25.7373Z" fill="white"></path><path id="Vector_4" d="M32.6473 16.2951H25.7598V14.0376H32.6473V16.2951Z" fill="white"></path><path id="Vector_5" d="M41.9666 14.0405V16.2907H35.0527V14.0405H41.9666Z" fill="white"></path><path id="Vector_6" d="M39.7061 9.26731V7.03613H41.9668V9.26731H39.7061Z" fill="white"></path><path id="Vector_7" d="M50.542 13.693C51.1291 13.0924 51.6387 12.5737 52.2419 11.9585C52.6665 12.4258 53.0765 12.8799 53.4894 13.3311C53.8877 13.7662 54.2889 14.1999 54.7252 14.6731C56.8307 12.2207 58.8586 9.85619 60.9495 7.41846C61.5322 7.91216 62.0945 8.38828 62.7182 8.91714C62.093 9.65256 61.4985 10.3587 60.8997 11.0589C59.2715 12.962 57.6433 14.8621 56.0137 16.7636C55.1805 17.7349 54.6168 17.7525 53.7003 16.8383C52.6548 15.7967 51.6094 14.7551 50.5435 13.693H50.542Z" fill="white"></path><path id="Vector_8" d="M11.444 9.05354C12.4968 8.40162 13.2772 7.72773 14.1806 7.4025C15.677 6.86632 17.2671 7.54314 18.109 8.84112C18.9421 10.1259 18.9319 11.9147 17.8879 13.0427C16.1412 14.9296 14.3021 16.7315 12.4777 18.5452C11.999 19.0213 11.3723 19.0067 10.8832 18.5188C9.0779 16.7184 7.24913 14.9369 5.52431 13.0617C4.26657 11.6934 4.45399 9.53699 5.7864 8.23461C7.08953 6.96007 9.2536 6.89122 10.6343 8.11155C10.9887 8.4236 11.2566 8.83379 11.4426 9.05647L11.444 9.05354ZM11.7208 15.8745C13.1074 14.5223 14.5657 13.1262 15.9903 11.6949C16.5043 11.1792 16.4618 10.3837 15.9874 9.91056C15.4925 9.41539 14.7341 9.43883 14.1645 9.98527C13.7047 10.4248 13.2655 10.8862 12.816 11.336C11.977 12.1769 11.4221 12.1725 10.5684 11.3184C10.1028 10.8525 9.65333 10.3676 9.17161 9.91935C8.64011 9.42565 7.93583 9.42272 7.44972 9.87247C6.9314 10.3515 6.84794 11.1177 7.37065 11.6422C8.81142 13.0896 10.2946 14.493 11.7222 15.8745H11.7208Z" fill="white"></path></symbol>					
	<symbol id="TeamWork" xmlns="http://www.w3.org/2000/svg" viewBox="0 0 71 71" fill="none"><path id="Vector" d="M62.8184 71H43.8203C43.0253 70.5951 42.2136 70.216 41.4389 69.776C40.3165 69.14 39.2312 68.4355 38.1033 67.8087C37.7372 67.6053 37.2861 67.4592 36.8738 67.4556C33.2979 67.4278 29.7202 67.4445 26.1443 67.4334C25.7615 67.4334 25.5341 67.5406 25.3141 67.8827C24.3415 69.3933 22.9215 70.0127 21.1613 69.7316C20.5678 69.6373 20.0076 69.3359 19.3826 69.1122C18.7836 70.1476 17.7722 70.6598 16.6425 70.9982H15.2558C13.7396 70.5636 12.5859 69.6983 12.0238 68.1508C10.833 68.7036 9.68854 68.7979 8.53294 68.3301C7.36255 67.8568 6.60633 66.9656 6.15148 65.8211C6.01836 65.8488 5.94625 65.8525 5.88708 65.8802C3.25417 67.0876 0.634193 65.2664 0.129427 63.0458C0.110938 62.9644 0.044375 62.8942 0 62.8184C0 56.4857 0 50.153 0 43.8203C0.404922 43.0234 0.778412 42.2099 1.21846 41.4333C1.85451 40.311 2.56081 39.2275 3.1876 38.1015C3.39099 37.7354 3.53891 37.2861 3.5426 36.8719C3.57034 33.2979 3.55185 29.722 3.56849 26.148C3.57034 25.7209 3.40948 25.5064 3.06557 25.2753C1.60859 24.2935 0.983646 22.8975 1.26839 21.1632C1.36638 20.5697 1.66406 20.0094 1.88594 19.3882C0.86901 18.7706 0.338359 17.7703 0 16.6406V15.2539C0.432656 13.7341 1.29797 12.5803 2.84924 12.0275C2.29086 10.8294 2.19841 9.68669 2.66805 8.52925C3.14323 7.35885 4.03628 6.60633 5.17708 6.14779C5.1475 6.01466 5.1438 5.94255 5.11607 5.88339C3.9124 3.27081 5.71698 0.634193 7.95237 0.127578C8.03372 0.109089 8.10583 0.042526 8.18164 0C14.5143 0 20.847 0 27.1797 0C27.9544 0.393828 28.7476 0.759922 29.502 1.18888C30.6446 1.83786 31.7485 2.55341 32.8967 3.18945C33.2628 3.39284 33.7139 3.53891 34.1262 3.5426C37.7021 3.57034 41.278 3.55 44.8557 3.56849C45.2847 3.57034 45.4973 3.40578 45.7247 3.06188C46.627 1.68995 47.9305 1.04281 49.5613 1.24065C50.2473 1.32385 50.9037 1.62893 51.6359 1.85081C52.2257 0.867162 53.2315 0.342057 54.3594 0H55.7461C57.2622 0.436354 58.4141 1.30167 58.9799 2.85479C60.1707 2.27792 61.3152 2.20396 62.4689 2.6699C63.6393 3.14323 64.3974 4.03258 64.8393 5.16414C64.9613 5.1512 65.0094 5.1549 65.0501 5.1401C67.8106 4.14906 69.9942 5.22885 70.8835 8.02448C70.902 8.08365 70.9612 8.13172 71 8.18349V27.1815C70.5951 27.9766 70.216 28.7883 69.7778 29.563C69.164 30.6446 68.4688 31.6819 67.8845 32.7783C67.6367 33.2424 67.4666 33.8101 67.4611 34.3333C67.4241 37.7927 67.4519 41.2521 67.4315 44.7115C67.4278 45.1996 67.5591 45.4844 67.9825 45.7691C69.3138 46.664 69.9627 47.9509 69.7575 49.5595C69.6706 50.2454 69.3692 50.9037 69.1473 51.6377C70.1439 52.222 70.6561 53.2352 71.0019 54.3594V55.7461C70.5655 57.2604 69.6983 58.4141 68.1526 58.9799C68.7165 60.1707 68.8034 61.3133 68.3338 62.4689C67.8605 63.6374 66.9711 64.3974 65.7952 64.8578C65.8581 65.0316 65.8969 65.1388 65.9357 65.2442C66.8288 67.6293 65.6732 70.0238 63.2455 70.8207C63.0994 70.8687 62.9607 70.9408 62.8184 71.0019V71ZM44.9204 5.92776C44.5858 5.92776 44.3325 5.92776 44.0792 5.92776C40.8435 5.92776 37.6078 5.91482 34.3721 5.93516C33.3219 5.94255 32.379 5.69479 31.4878 5.13271C30.199 4.31917 28.8937 3.52966 27.5606 2.79378C27.1205 2.54971 26.5714 2.38331 26.0722 2.38146C20.5253 2.35372 14.9803 2.36297 9.43339 2.36482C9.20227 2.36482 8.96745 2.34633 8.74188 2.38516C7.94497 2.52198 7.39398 2.96018 7.16471 3.75339C6.97982 4.38943 7.19984 5.16414 7.80445 5.51544C8.22047 5.75766 8.74927 5.89818 9.23185 5.91112C10.8719 5.95919 12.5138 5.91852 14.1538 5.93885C14.8823 5.9481 15.3685 6.43068 15.3815 7.08151C15.3926 7.7194 14.9063 8.22047 14.1963 8.28703C13.9892 8.30737 13.7803 8.29628 13.5732 8.29628C11.286 8.29628 8.99703 8.28888 6.70987 8.30182C5.56167 8.30922 4.72039 9.09133 4.73333 10.0916C4.74628 11.0956 5.52839 11.8074 6.67659 11.8185C8.20198 11.8333 9.72737 11.8222 11.2528 11.8241C11.4839 11.8241 11.7168 11.8148 11.9443 11.8481C12.6043 11.9461 13.0555 12.4749 13.0185 13.0814C12.9815 13.6823 12.5341 14.1205 11.8833 14.1778C11.654 14.1982 11.421 14.1908 11.1899 14.1908C8.92492 14.1908 6.65995 14.1815 4.39497 14.1963C3.16542 14.2055 2.34263 14.9581 2.37036 15.9972C2.39625 16.9938 3.24862 17.7389 4.40052 17.7482C5.80943 17.7592 7.22018 17.75 8.62909 17.7519C9.6682 17.7519 10.7092 17.7389 11.7483 17.7574C12.4953 17.7703 13.0241 18.2843 13.0185 18.9426C13.013 19.6064 12.4879 20.0852 11.7316 20.1111C11.5005 20.1185 11.2694 20.113 11.0383 20.113C9.16714 20.113 7.29414 20.1019 5.423 20.1185C4.36169 20.1278 3.61471 20.8304 3.57589 21.7918C3.53706 22.7477 4.22672 23.5188 5.25844 23.6519C5.5099 23.6833 5.76505 23.6778 6.02021 23.6778C10.1341 23.6778 14.2481 23.6778 18.3602 23.6778C18.5913 23.6778 18.8242 23.6667 19.0535 23.6944C19.9299 23.7942 20.3848 24.6817 19.9429 25.4435C19.8042 25.6802 19.6138 25.8891 19.4399 26.1036C18.5062 27.2499 17.554 28.3815 16.6388 29.5427C16.1192 30.2009 16.2024 31.0237 16.7738 31.5451C17.3358 32.0591 18.1623 32.048 18.7854 31.5063C18.9592 31.3546 19.1201 31.1864 19.2828 31.0237C22.9419 27.396 26.6084 23.7721 30.2582 20.1352C31.0551 19.3401 31.9796 18.9185 33.1056 18.9352C33.8211 18.9444 34.5385 18.9352 35.2541 18.9352C35.7736 18.9352 36.2932 18.9352 36.7074 18.9352C36.7554 18.1142 36.6796 17.3802 36.8571 16.7127C37.556 14.0909 40.727 13.1036 42.9439 14.7824C43.5947 15.2742 44.2141 15.8086 44.9241 16.3855V5.92591L44.9204 5.92776ZM26.0777 65.0704C26.4216 65.0704 26.6953 65.0704 26.9689 65.0704C30.2508 65.0704 33.5309 65.0759 36.8128 65.0667C37.7151 65.0648 38.5397 65.2738 39.3126 65.749C40.69 66.5939 42.0694 67.4389 43.4783 68.2266C43.898 68.4614 44.4249 68.6167 44.9038 68.6185C50.4488 68.6444 55.9957 68.6352 61.5426 68.6352C61.7737 68.6352 62.0067 68.6463 62.2359 68.6185C63.031 68.5224 63.6541 67.9659 63.8501 67.2004C64.0109 66.5717 63.765 65.7933 63.1586 65.4531C62.7573 65.2276 62.2526 65.1 61.7885 65.087C60.1263 65.0427 58.4604 65.0815 56.7982 65.0574C56.1103 65.0482 55.6444 64.5675 55.6185 63.9407C55.5945 63.3268 56.0475 62.8128 56.7113 62.7222C56.9165 62.6945 57.1254 62.7056 57.3344 62.7056C59.6455 62.7056 61.9567 62.713 64.2661 62.7C65.4235 62.6926 66.2648 61.9327 66.2685 60.9324C66.2722 59.9081 65.4716 59.1907 64.279 59.1815C62.7536 59.1704 61.2283 59.1796 59.7029 59.1778C58.575 59.1778 58.0037 58.7876 57.9815 58.0129C57.9575 57.2123 58.5362 56.8111 59.7158 56.8092C61.9567 56.8092 64.1995 56.824 66.4405 56.7963C66.8879 56.7908 67.3723 56.7057 67.7699 56.5134C68.4336 56.1917 68.7535 55.356 68.5871 54.6866C68.3726 53.8306 67.6497 53.2611 66.6956 53.2556C64.4085 53.2426 62.1195 53.25 59.8323 53.25C58.5769 53.25 57.9963 52.8839 57.9815 52.0852C57.9667 51.2642 58.5584 50.887 59.8637 50.887C61.7811 50.887 63.7003 50.9018 65.6177 50.8796C66.6383 50.8685 67.3705 50.1696 67.4241 49.2359C67.4759 48.2985 66.8306 47.5238 65.8414 47.3629C65.5696 47.3185 65.2886 47.3222 65.0131 47.3222C61.0156 47.3204 57.0182 47.3222 53.0189 47.3204C52.6731 47.3204 52.3237 47.3389 51.9798 47.3056C51.0682 47.2187 50.6041 46.2924 51.083 45.5158C51.2272 45.281 51.4214 45.0776 51.597 44.8631C52.5178 43.7353 53.4478 42.6166 54.3575 41.4795C54.7902 40.9378 54.8438 40.3313 54.4685 39.7397C54.1061 39.1683 53.5347 38.9502 52.9061 39.1332C52.5529 39.2367 52.2164 39.5011 51.9465 39.7674C48.3429 43.3192 44.7226 46.8582 41.1708 50.4636C40.0503 51.6007 38.8281 52.1832 37.2306 52.0741C36.2266 52.0057 35.2153 52.0611 34.2926 52.0611C34.2483 52.8636 34.3278 53.5995 34.1503 54.2669C33.4569 56.8943 30.2878 57.8946 28.0709 56.2213C27.4182 55.7276 26.797 55.1933 26.0759 54.609V65.0704H26.0777ZM65.0722 44.9149C65.0722 44.6283 65.0722 44.3806 65.0722 44.1328C65.0722 40.8287 65.0796 37.5246 65.0686 34.2205C65.0648 33.2942 65.2775 32.4492 65.7675 31.656C66.605 30.3007 67.4389 28.9436 68.2118 27.5513C68.4558 27.1113 68.6185 26.5621 68.6204 26.0629C68.6481 20.5179 68.6389 14.9729 68.637 9.42784C68.637 9.19672 68.6481 8.96375 68.6167 8.73633C68.5021 7.89875 67.8401 7.22388 67.0414 7.10925C66.3369 7.00755 65.5234 7.455 65.2571 8.15576C65.1296 8.49227 65.0833 8.875 65.0796 9.2374C65.0611 10.8552 65.0796 12.4712 65.0648 14.0891C65.0574 14.8675 64.586 15.3704 63.9129 15.3796C63.2492 15.387 62.7592 14.8767 62.7093 14.1186C62.6963 13.9338 62.7056 13.7489 62.7056 13.564C62.7056 11.299 62.713 9.03586 62.7019 6.77089C62.6963 5.56721 61.9309 4.71484 60.9065 4.73148C59.8785 4.74628 59.1907 5.53948 59.1833 6.745C59.1722 8.36284 59.1889 9.97883 59.1759 11.5967C59.1685 12.4675 58.6933 13.013 57.987 13.0148C57.2752 13.0167 56.8185 12.4842 56.8148 11.6004C56.8055 9.63677 56.8148 7.67318 56.8092 5.70958C56.8092 5.13271 56.8314 4.55029 56.7704 3.97896C56.6687 3.01935 55.8977 2.34633 55.0028 2.36852C54.1357 2.3907 53.3591 3.13398 53.2629 4.05107C53.2389 4.28034 53.25 4.51331 53.25 4.74443C53.25 7.07781 53.2574 9.4112 53.2445 11.7446C53.2408 12.4916 52.7212 13.0204 52.0611 13.0185C51.3992 13.0167 50.9166 12.4897 50.8889 11.7353C50.8815 11.5504 50.887 11.3655 50.887 11.1807C50.887 9.26328 50.8907 7.34591 50.8833 5.42854C50.8796 4.61315 50.5154 4.00669 49.7518 3.68497C49.1083 3.41503 48.2615 3.5537 47.8751 4.14906C47.57 4.62055 47.3537 5.2418 47.3444 5.80203C47.2927 8.75852 47.3204 11.7168 47.3204 14.6733C47.3204 16.0601 47.3167 17.4449 47.3204 18.8316C47.3204 19.366 47.1373 19.8634 46.6122 19.9688C46.2129 20.0483 45.7488 19.8892 45.3346 19.7672C45.1294 19.7062 44.9722 19.4917 44.7929 19.3457C43.702 18.4526 42.6203 17.5503 41.5184 16.6721C40.9489 16.2191 40.2444 16.1858 39.7138 16.55C39.1813 16.9161 38.9428 17.4523 39.124 18.0551C39.2367 18.4286 39.5104 18.7854 39.7914 19.0702C43.4228 22.757 47.056 26.4438 50.7188 30.0992C51.647 31.0255 52.1129 32.0665 52.0685 33.3755C52.0315 34.5238 52.0611 35.6757 52.0611 36.8701C52.2664 36.8405 52.3995 36.8257 52.5289 36.8035C54.8087 36.4041 56.8037 37.887 57.0515 40.1853C57.1716 41.3039 56.7889 42.2709 56.0752 43.1233C55.5982 43.6927 55.1359 44.2733 54.6127 44.9167H65.0704L65.0722 44.9149ZM5.92776 26.0814C5.92776 26.392 5.92776 26.6435 5.92776 26.8931C5.92776 30.1288 5.91297 33.3645 5.93701 36.6001C5.9444 37.6762 5.68925 38.6395 5.11237 39.5492C4.32102 40.7973 3.54445 42.0564 2.83445 43.3525C2.57005 43.8333 2.38516 44.4268 2.38146 44.9704C2.34818 50.4932 2.36112 56.0179 2.36297 61.5407C2.36297 61.794 2.35188 62.0529 2.3907 62.3025C2.51828 63.1345 3.20609 63.8039 4.00115 63.8945C4.73148 63.9777 5.55797 63.4692 5.78909 62.7389C5.89078 62.4153 5.92036 62.0584 5.92221 61.7145C5.93701 60.0967 5.91852 58.4789 5.93701 56.861C5.9444 56.1233 6.41034 55.6407 7.06302 55.6167C7.70276 55.5945 8.21307 56.0752 8.28518 56.7834C8.30737 56.9886 8.29443 57.1994 8.29443 57.4065C8.29443 59.7177 8.28518 62.0289 8.30182 64.3401C8.30922 65.442 9.09318 66.2648 10.0731 66.263C11.079 66.263 11.8056 65.479 11.8167 64.3364C11.8315 62.7888 11.8204 61.2394 11.8222 59.6918C11.8222 59.4607 11.8148 59.2258 11.8555 59.0003C11.9665 58.3735 12.4786 57.9519 13.0647 57.9796C13.6657 58.0074 14.1149 58.4548 14.176 59.1001C14.1982 59.3294 14.1908 59.5624 14.1908 59.7935C14.1908 62.1047 14.1741 64.4159 14.2018 66.7271C14.2166 67.8697 14.9877 68.6481 15.9805 68.6278C16.9531 68.6075 17.7297 67.7699 17.7445 66.6808C17.7629 65.2941 17.75 63.9074 17.75 62.5207C17.75 61.4113 17.7352 60.3019 17.7574 59.1926C17.7722 58.49 18.2899 57.9815 18.9259 57.9778C19.5638 57.9741 20.0649 58.4807 20.1074 59.1815C20.1204 59.3885 20.1111 59.5975 20.1111 59.8046C20.1111 61.746 20.0963 63.6874 20.1204 65.6288C20.1315 66.618 20.8119 67.3446 21.7086 67.4167C22.6442 67.4907 23.4429 66.862 23.6204 65.8821C23.6741 65.59 23.6759 65.2849 23.6759 64.9853C23.6796 60.9879 23.6778 56.9886 23.6778 52.9911C23.6778 52.8063 23.6852 52.6214 23.6778 52.4365C23.6519 51.8282 23.7277 51.2716 24.3693 50.985C25.0053 50.7003 25.4694 51.022 25.9335 51.4047C27.1261 52.3921 28.3223 53.3739 29.5279 54.3464C30.0715 54.7846 30.6779 54.8253 31.2677 54.4555C31.8409 54.0968 32.0554 53.5218 31.8705 52.8932C31.767 52.54 31.4989 52.2072 31.2326 51.9354C27.727 48.3817 24.2454 44.8021 20.6751 41.315C19.4178 40.0873 18.7836 38.7616 18.9259 37.0124C19.0017 36.0806 18.9389 35.1395 18.9389 34.1835C18.7688 34.1946 18.7022 34.1946 18.6375 34.2039C16.7016 34.4997 15.2132 33.8526 14.3757 32.3531C13.5492 30.8739 13.7618 29.2912 14.984 27.8028C15.4314 27.2573 15.8752 26.7101 16.391 26.0777H5.92961L5.92776 26.0814ZM21.3092 34.9638C21.3092 36.1989 21.2538 37.0365 21.3333 37.8611C21.374 38.2827 21.5533 38.7801 21.8417 39.074C25.2013 42.5094 28.5904 45.9152 31.9888 49.3136C32.1904 49.5151 32.538 49.6686 32.819 49.6741C34.4812 49.7074 36.1471 49.7259 37.8075 49.6667C38.2439 49.6501 38.7745 49.4448 39.0833 49.1435C42.5205 45.7858 45.9263 42.3966 49.3228 38.9964C49.5225 38.7967 49.6667 38.4454 49.6723 38.1607C49.7037 36.4984 49.724 34.8325 49.663 33.1722C49.6464 32.7377 49.4319 32.2107 49.1305 31.9019C45.7895 28.4814 42.417 25.0885 39.0315 21.7123C38.8041 21.4867 38.3992 21.3388 38.0719 21.3314C36.4781 21.2926 34.8843 21.3296 33.2905 21.3055C32.6933 21.2963 32.2421 21.4867 31.8169 21.912C29.0416 24.691 26.3144 27.5236 23.43 30.1861C21.8491 31.6449 20.7065 33.1038 21.3074 34.9675L21.3092 34.9638Z" fill="white"></path></symbol>		
	<symbol id="ClientFocus" xmlns="http://www.w3.org/2000/svg" viewBox="0 0 71 71" fill="none"><path id="Vector" d="M53.4366 19.5816C52.8041 20.2589 52.205 20.9005 51.5709 21.5795C57.1628 28.129 59.3309 35.7481 57.6843 44.3122C56.4976 50.4822 53.3486 55.5924 48.4575 59.5347C37.5359 68.3379 22.3941 66.9614 13.1708 57.5771C3.36918 47.6048 3.21337 32.3524 11.7168 22.2119C14.8037 18.5305 18.6282 15.8726 23.1732 14.2721C27.6917 12.6807 32.3079 12.3594 36.9972 13.2751C41.7169 14.1966 45.8622 16.3149 49.4585 19.4987C50.1117 18.8421 50.7309 18.2195 51.4869 17.4593C50.011 16.3926 48.6018 15.2488 47.0742 14.2939C43.2779 11.9205 39.1129 10.5268 34.6588 10.1265C29.0917 9.62599 23.7395 10.5383 18.7817 13.168C16.816 14.2104 15.0348 15.6002 13.1714 16.835C12.9869 16.9571 12.8242 17.112 12.6379 17.2306C11.979 17.6488 11.2172 17.5566 10.7693 17.0152C10.3024 16.4502 10.3421 15.6163 10.9424 15.0893C11.6823 14.4402 12.4522 13.8194 13.2525 13.2463C17.1328 10.468 21.4265 8.62214 26.114 7.75133C29.6758 7.09015 33.2635 7.04811 36.8517 7.62059C42.7558 8.56224 47.9895 10.9535 52.5368 14.8393C52.7972 15.0617 53.0646 15.2753 53.4757 15.6134C53.0174 13.8856 52.661 12.3133 52.1734 10.783C51.8526 9.77516 52.078 9.07252 52.8214 8.34742C55.3965 5.83519 57.92 3.26998 60.4664 0.728386C61.6623 -0.465525 62.7668 -0.170647 63.2083 1.45464C63.5889 2.85531 64.0121 4.24619 64.3283 5.66126C64.4698 6.29652 64.7825 6.53438 65.373 6.67606C66.8316 7.02623 68.2776 7.43053 69.7219 7.83599C71.1144 8.22705 71.4168 9.3674 70.3906 10.4006C67.7337 13.0758 65.0562 15.7309 62.3994 18.4055C61.8532 18.9555 61.2489 19.0972 60.5159 18.8951C58.8848 18.4453 57.2479 18.0145 55.5253 17.6943C55.7823 18.0047 56.037 18.3168 56.2975 18.6244C59.9242 22.9105 62.2309 27.8295 63.2509 33.3389C66.309 49.8642 55.9249 65.98 39.6224 70.0455C21.8117 74.4877 3.84753 62.954 0.547346 44.8916C-0.834823 37.3255 0.413384 30.1471 4.14823 23.411C4.47077 22.8287 4.89968 22.4267 5.60916 22.4918C6.20883 22.5471 6.69754 22.8921 6.7671 23.4605C6.8246 23.9305 6.69006 24.4932 6.46123 24.9176C5.05204 27.5364 3.99184 30.2778 3.40425 33.1949C2.14972 39.4242 2.80573 45.4433 5.46773 51.2211C8.14122 57.0236 12.2941 61.4952 17.8745 64.5736C23.4284 67.6369 29.3952 68.7923 35.7041 67.9399C42.1653 67.0674 47.7377 64.3161 52.3683 59.7438C56.3124 55.8487 58.9566 51.1756 60.2077 45.7607C61.867 38.5793 60.9223 31.7303 57.4543 25.2292C56.3619 23.1818 55.0234 21.3094 53.436 19.581L53.4366 19.5816ZM43.5142 25.3738C43.3923 25.2661 43.2566 25.1284 43.1036 25.0144C36.8954 20.4046 30.2456 19.7094 23.4066 23.2676C17.8003 26.1841 14.6421 31.0456 13.9919 37.3336C13.4365 42.7048 15.0268 47.5109 18.8082 51.4089C23.8585 56.6147 29.9886 58.2233 36.9949 56.3561C39.5056 55.6869 41.7019 54.387 43.6964 52.7254C44.4364 52.1092 45.2902 52.2002 45.7886 52.8481C46.2681 53.4713 46.1388 54.2678 45.4299 54.8633C44.921 55.2907 44.4053 55.7163 43.8545 56.086C37.7371 60.193 31.177 61.0782 24.3093 58.4024C17.9969 55.9432 13.8292 51.3144 11.9416 44.8173C10.2001 38.8218 11.0499 33.0723 14.4685 27.8336C18.1533 22.1871 23.4543 19.0016 30.1674 18.4044C35.7305 17.9091 40.7291 19.5159 45.0809 23.0545C45.2442 23.1875 45.4281 23.2946 45.4621 23.3177C46.1601 22.645 46.7879 22.0403 47.4129 21.4384C38.6421 13.5038 24.3604 13.2722 15.1981 22.5165C5.86674 31.9313 6.13409 46.7104 15.3188 55.8044C24.7767 65.1691 39.5965 64.7982 48.6087 55.669C57.9666 46.1903 57.2111 31.9388 49.5051 23.5342C48.887 24.1614 48.2684 24.7886 47.6371 25.4296C47.6405 25.4434 47.64 25.4993 47.6664 25.5367C47.7791 25.698 47.8964 25.8558 48.0177 26.0107C52.4442 31.682 53.7252 37.9873 51.8313 44.9313C51.4915 46.1771 50.8597 46.6724 49.9639 46.4293C49.1044 46.1961 48.818 45.3921 49.1728 44.1584C50.4221 39.8142 50.0852 35.5845 48.2155 31.4833C47.5422 30.0071 46.6861 28.6353 45.634 27.5013C44.9561 28.1503 44.3191 28.7608 43.6815 29.3713C49.4148 36.4899 47.5319 46.0239 41.5576 50.8871C35.5673 55.7629 27.0207 55.4306 21.3201 50.0566C15.9467 44.9907 15.1159 36.2912 19.4257 30.3446C21.7663 27.1154 24.8601 24.9936 28.7605 24.1902C33.5279 23.2077 37.8354 24.3544 41.549 27.2813C42.2263 26.6235 42.8581 26.0113 43.5142 25.3743V25.3738ZM41.6013 31.3289C40.425 32.5113 39.3142 33.6626 38.1603 34.7695C37.771 35.1433 37.7383 35.4077 38.0056 35.888C39.2814 38.1791 39.0054 41.2551 37.4002 43.2646C35.4937 45.6512 32.6523 46.5555 29.8126 45.6783C27.0586 44.8277 25.2211 42.4335 25.0067 39.4162C24.7531 35.8437 27.6336 32.5372 31.2057 32.2303C32.8397 32.0897 34.3214 32.4647 35.5966 33.2318C36.9477 31.8789 38.2442 30.5802 39.5361 29.2861C34.9118 25.3156 27.2409 25.8414 22.8972 30.4771C18.2045 35.4854 18.2712 43.0227 23.0507 47.8836C27.7043 52.616 35.3706 52.8009 40.2899 48.2988C45.1378 43.8624 45.7576 36.2491 41.6007 31.3289H41.6013ZM35.4822 37.2276C35.2252 37.5738 35.0343 37.8963 34.7807 38.1583C34.1311 38.8299 33.4796 39.5049 32.7782 40.1205C32.1987 40.6291 31.4098 40.5583 30.9131 40.0457C30.4227 39.5394 30.3841 38.8374 30.8464 38.2309C31.0539 37.9591 31.3104 37.7229 31.5547 37.481C32.2424 36.7986 32.9357 36.1213 33.6561 35.4134C31.7761 34.496 29.5982 35.1024 28.4638 36.764C27.3363 38.4158 27.5824 40.7264 29.0319 42.0954C30.5503 43.5295 32.8644 43.624 34.4956 42.3177C35.9944 41.1175 36.486 38.9589 35.4822 37.2282V37.2276ZM55.734 13.2941C57.7854 11.2438 59.7357 9.30174 61.6704 7.34357C61.775 7.23759 61.8072 6.98361 61.7687 6.82407C61.5554 5.94693 61.3093 5.07726 61.0753 4.20588C60.9856 4.22546 60.9235 4.2197 60.8953 4.24792C58.9727 6.15714 57.0484 8.06463 55.1424 9.99113C55.024 10.1104 54.9832 10.3908 55.0246 10.5694C55.2246 11.4298 55.4655 12.2805 55.7346 13.2947L55.734 13.2941ZM57.7061 15.254C58.6668 15.5178 59.4614 15.7781 60.2761 15.9371C60.5492 15.9906 60.9568 15.8772 61.1587 15.6871C62.2166 14.6913 63.2279 13.646 64.2565 12.6185C65.1246 11.7512 65.9945 10.885 66.9242 9.95715C65.9456 9.68934 65.0729 9.43305 64.1898 9.22284C64.0121 9.18079 63.7298 9.24645 63.6033 9.37143C61.6589 11.2899 59.7322 13.2256 57.7055 15.254H57.7061Z" fill="white"></path><path id="Vector_2" d="M7.6784 21.8781C6.96432 21.8688 6.3589 21.2134 6.3773 20.4688C6.39627 19.6884 7.03389 19.0744 7.79799 19.0998C8.53967 19.1245 9.11749 19.7465 9.09967 20.5004C9.08069 21.2906 8.46435 21.8884 7.67898 21.8781H7.6784Z" fill="white"></path><path id="Vector_3" d="M48.5396 47.7217C49.2996 47.7257 49.8936 48.3247 49.8907 49.0849C49.8872 49.8423 49.2818 50.4441 48.5263 50.4413C47.7714 50.4384 47.1735 49.8325 47.1758 49.0723C47.1781 48.3132 47.7795 47.7177 48.5396 47.7217Z" fill="white"></path></symbol>
	<symbol id="Autonomy" xmlns="http://www.w3.org/2000/svg" viewBox="0 0 48 88" fill="none"><path id="Vector" d="M14.7925 88C13.8336 87.4655 13.5659 86.6336 13.5762 85.5663C13.614 81.1267 13.5539 76.6872 13.6088 72.2477C13.6363 70.0391 12.8197 68.3616 11.0871 66.9969C5.22873 62.3803 1.6125 56.3596 0.348199 49.0085C-0.0120508 46.9185 -0.0549377 44.7374 0.0531373 42.613C0.157781 40.5694 1.31401 38.9228 2.7979 37.5203C3.06551 37.2677 3.27309 36.8105 3.27823 36.4444C3.31769 33.5242 3.2748 30.6024 3.30568 27.6805C3.34685 23.846 5.92006 20.998 9.68553 20.6731C11.8642 20.4858 13.7032 21.3263 15.2591 22.9058C18.6935 19.8774 22.1433 19.8395 25.5914 22.8525C30.7447 19.2878 33.8497 19.886 37.2995 25.1453C38.581 24.432 39.9431 23.9611 41.4441 24.0917C45.1427 24.4149 47.8617 27.146 47.8703 30.8739C47.8909 39.0913 47.9149 47.3138 47.6593 55.526C47.4963 60.7699 46.3092 65.8952 44.7481 70.9156C44.5732 71.4777 44.484 72.0878 44.4805 72.6774C44.4582 76.9742 44.4462 81.2694 44.484 85.5663C44.4942 86.6353 44.2249 87.4655 43.2677 88H14.7925ZM23.6392 38.8541C18.4791 38.8541 13.391 38.7991 8.30457 38.8747C5.37111 38.9194 3.28166 41.2328 3.30739 44.2217C3.35028 49.433 4.92509 54.1785 7.77792 58.508C9.35102 60.8953 11.3495 62.8925 13.6037 64.6405C15.4993 66.11 16.6452 68.0436 16.9334 70.4292C17.0415 71.323 16.9506 72.2408 16.9506 73.162H41.0393C41.0393 72.6533 41.005 72.1944 41.0496 71.7441C41.0942 71.292 41.1765 70.8366 41.312 70.4035C42.7771 65.7199 43.8081 60.9435 44.1958 56.0485C44.3982 53.4961 44.4411 50.9317 44.5629 48.2144C42.5232 49.2285 40.6224 49.4416 38.6616 48.7077C36.682 47.9669 35.3765 46.5283 34.5514 44.6085C31.2216 46.4166 28.2727 45.9439 25.6377 43.4655C24.8074 44.3885 24.0801 45.3527 23.1915 46.1364C22.3131 46.9116 21.2736 47.5063 20.1842 48.2625C20.3764 48.3949 20.5359 48.4756 20.6611 48.5925C22.1914 50.0208 23.1417 51.7808 23.6255 53.8072C23.8588 54.7852 23.4231 55.6394 22.5362 55.9453C21.6544 56.2495 20.795 55.8199 20.4107 54.8745C20.3043 54.6099 20.2134 54.3383 20.1345 54.0633C19.697 52.5474 18.8153 51.358 17.5458 50.4367C16.0036 49.3178 14.2487 49.1047 12.4131 49.146C11.0133 49.1786 10.1899 48.5238 10.1744 47.4547C10.159 46.3822 10.991 45.7222 12.372 45.7153C13.3446 45.7102 14.3156 45.7342 15.2883 45.7085C19.474 45.6002 22.8981 42.8055 23.6409 38.8489L23.6392 38.8541ZM40.9998 76.7164H17.0912V84.5178H40.9998V76.7164ZM34.1774 33.2097C34.1774 31.405 34.186 29.602 34.1757 27.7974C34.1637 25.6128 32.7518 24.078 30.7653 24.0677C28.7856 24.0574 27.3275 25.6042 27.3206 27.763C27.3086 31.3706 27.3086 34.9783 27.3206 38.586C27.3275 40.7413 28.7942 42.2881 30.7739 42.2744C32.7209 42.2589 34.1585 40.7292 34.1757 38.6203C34.1911 36.8174 34.1791 35.0127 34.1791 33.208L34.1774 33.2097ZM44.4702 36.6644C44.4702 34.803 44.4874 32.9416 44.4651 31.0802C44.4411 29.0245 43.0018 27.5241 41.0753 27.5052C39.1265 27.4845 37.6255 29.0142 37.6152 31.0974C37.5963 34.7617 37.598 38.4278 37.6152 42.0922C37.6255 44.1856 39.1008 45.717 41.0496 45.7119C42.9966 45.7067 44.4496 44.1753 44.4685 42.0767C44.4857 40.2738 44.4719 38.4691 44.4719 36.6644H44.4702ZM13.5694 35.4527C13.5694 32.5875 13.6397 29.8702 13.5436 27.1597C13.4819 25.3911 11.8899 24.0574 10.1401 24.0677C8.35432 24.078 6.86701 25.4702 6.75207 27.2869C6.70061 28.0861 6.73148 28.8888 6.73148 29.6914C6.72977 31.6336 6.73148 33.5741 6.73148 35.4527H13.5711H13.5694ZM23.8828 35.3736C23.8828 32.713 23.9051 30.14 23.8759 27.567C23.8519 25.5406 22.3423 24.047 20.4158 24.0677C18.5322 24.09 17.0621 25.5802 17.0329 27.5602C17.002 29.621 17.0243 31.6817 17.0243 33.7425C17.0243 34.277 17.0243 34.8099 17.0243 35.3736H23.8845H23.8828Z" fill="white"></path><path id="Vector_2" d="M26.1147 0C27.0703 0.534531 27.3482 1.36125 27.331 2.42859C27.2864 5.48625 27.3344 8.54562 27.295 11.605C27.2881 12.1155 27.132 12.6964 26.8507 13.1141C26.4596 13.6967 25.8025 13.872 25.0975 13.6383C24.3289 13.3822 23.9361 12.8116 23.9001 12.033C23.8572 11.1203 23.8846 10.2042 23.8829 9.28984C23.8829 7.00219 23.9189 4.71453 23.8675 2.42859C23.8435 1.35953 24.1282 0.532812 25.0837 0H26.113L26.1147 0Z" fill="white"></path><path id="Vector_3" d="M7.19816 2.78088C7.81917 3.15729 8.31665 3.34463 8.66318 3.68495C10.9842 5.96573 13.2812 8.26885 15.5697 10.584C16.4154 11.4382 16.4737 12.4489 15.7841 13.1724C15.0671 13.9253 14.0258 13.8806 13.1371 13.0006C10.8281 10.7095 8.53623 8.39948 6.24093 6.0912C5.65252 5.49823 5.31286 4.75573 5.77603 4.00979C6.08482 3.51307 6.69038 3.2037 7.19816 2.78088Z" fill="white"></path><path id="Vector_4" d="M46.8582 5.5842C46.4774 6.21841 46.2801 6.74091 45.925 7.10529C43.6503 9.43248 41.3499 11.7339 39.0391 14.025C38.1917 14.8654 37.1675 14.9136 36.4556 14.214C35.7385 13.5094 35.7643 12.4695 36.5963 11.6256C38.9002 9.2881 41.2281 6.97295 43.5508 4.65435C44.1169 4.0906 44.8323 3.75029 45.5528 4.17482C46.0571 4.47216 46.3899 5.0617 46.8565 5.58591L46.8582 5.5842Z" fill="white"></path><path id="Vector_5" d="M23.8713 61.184C23.873 62.0812 23.0684 62.8907 22.173 62.8924C21.2758 62.8924 20.4695 62.088 20.4678 61.1909C20.4661 60.2937 21.2689 59.4859 22.1661 59.4824C23.0616 59.4807 23.8696 60.2868 23.8713 61.184Z" fill="white"></path></symbol>
	<symbol id="Innovation" xmlns="http://www.w3.org/2000/svg" viewBox="0 0 74 74" fill="none"><path id="Vector" d="M74.0003 17.0547C73.8601 18.341 73.7445 19.6288 73.5754 20.9108C72.5044 29.0147 69.5705 36.3858 64.7605 42.9908C64.1419 43.8392 64.0075 44.5214 64.2691 45.5736C65.7736 51.6121 64.298 56.9193 59.9794 61.3853C57.1162 64.3468 54.1663 67.2229 51.2497 70.1309C50.3203 71.0574 49.5876 71.0501 48.6467 70.1107C45.1519 66.6217 41.6528 63.1371 38.1841 59.6235C37.7389 59.1726 37.3183 59.0526 36.7243 59.1379C34.2716 59.4934 31.8073 59.7781 29.3604 60.1669C28.4455 60.3129 27.7547 60.1004 27.1765 59.4168C26.9901 59.1971 26.8138 58.9673 26.5045 58.5829C26.2516 58.9355 26.1244 59.1769 25.9394 59.3619C22.2061 63.0894 18.4729 66.8154 14.7151 70.5197C14.3754 70.855 13.9057 71.1296 13.449 71.2539C12.8969 71.4028 12.3375 71.1267 12.1525 70.5862C12.0066 70.1569 12.0499 69.6251 12.1439 69.1669C12.1988 68.8981 12.5023 68.6683 12.722 68.45C16.4408 64.7428 20.1624 61.0385 23.8899 57.3399C24.0764 57.1549 24.3163 57.0234 24.4854 56.8991C21.9893 54.4103 19.6074 52.0342 17.0594 49.4904C16.9712 49.6335 16.8715 49.898 16.6908 50.0815C14.1514 52.6528 11.6033 55.2138 9.05233 57.772C8.83264 57.9917 8.60139 58.2114 8.34124 58.3791C7.7978 58.7303 7.06792 58.6335 6.61554 58.1883C6.15882 57.7388 6.04897 57.0104 6.39151 56.464C6.55628 56.2024 6.77596 55.9712 6.99421 55.7501C9.53796 53.1832 12.0832 50.6192 14.6356 48.0624C14.8206 47.8774 15.0634 47.7503 15.4276 47.4915C13.5444 46.4711 13.7091 45.0085 13.9895 43.4317C14.3465 41.4198 14.5402 39.379 14.8495 37.357C14.9492 36.7052 14.8133 36.2528 14.3277 35.7729C10.8648 32.3548 7.43358 28.9048 3.99518 25.4621C2.89964 24.3651 2.90253 23.7118 4.01253 22.6018C6.97831 19.6404 9.86749 16.5965 12.9316 13.7392C17.6086 9.37576 23.1022 8.14002 29.2506 9.95678C29.716 10.0941 30.0065 9.95678 30.349 9.70096C35.9756 5.4792 42.2223 2.58279 49.1019 1.13604C51.4491 0.643184 53.8585 0.450957 56.2389 0.11998C56.4745 0.0867383 56.7086 0.0419336 56.9428 0.00146484C58.5326 0.00146484 60.1224 0.00146484 61.7123 0.00146484C61.8987 0.0375977 62.0852 0.0939649 62.2731 0.104082C65.2533 0.270293 68.183 0.758809 71.0823 1.45256C71.7962 1.62311 72.3296 1.95842 72.4871 2.71432C72.8094 4.26369 73.1693 5.80729 73.4135 7.36822C73.6694 8.99854 73.8081 10.6462 73.9975 12.2852V17.0547H74.0003ZM59.5385 2.9051C56.012 2.93545 52.51 3.25486 49.0962 4.14807C33.348 8.27154 22.4128 17.8251 16.5665 33.0933C16.3844 33.5703 16.4538 33.8492 16.8108 34.2048C24.4839 41.8577 32.147 49.5208 39.797 57.1968C40.1583 57.5596 40.4416 57.6029 40.9114 57.4324C50.8927 53.8003 58.7219 47.4756 64.243 38.4294C70.614 27.9899 72.5651 16.7237 69.9983 4.71897C69.9014 4.26658 69.7237 4.10037 69.2771 3.9992C66.0699 3.27799 62.8208 2.94557 59.5385 2.90365V2.9051ZM14.1398 31.3373C16.9076 24.0052 21.2103 17.7123 27.1014 12.3473C22.7727 11.5654 18.918 12.343 15.7528 15.144C12.6208 17.9147 9.76343 20.9946 6.78753 23.9416C6.75718 23.972 6.75284 24.0269 6.77452 23.9691C9.23589 26.4319 11.6655 28.8629 14.1398 31.3387V31.3373ZM61.6501 46.9033C56.2837 52.7987 49.9735 57.1043 42.6992 59.849C45.1678 62.3161 47.6075 64.7529 50.1122 67.2562C53.065 64.2311 56.2288 61.2856 59.0356 58.0293C61.7152 54.9204 62.4292 51.1207 61.6501 46.9019V46.9033ZM34.7023 56.506C28.9586 50.7623 23.2034 45.0056 17.4944 39.2966C17.2704 40.9009 17.0117 42.6367 16.8021 44.3783C16.7703 44.6399 16.8888 45.0085 17.0724 45.1935C20.9718 49.1233 24.8872 53.0387 28.817 56.9395C28.9904 57.1115 29.3272 57.2344 29.5657 57.204C31.3275 56.9887 33.085 56.73 34.7037 56.5045L34.7023 56.506Z" fill="white"></path><path id="Vector_2" d="M0 72.1211C0.427813 71.6384 0.831055 71.1325 1.28488 70.6772C4.64813 67.2981 8.02148 63.9291 11.3934 60.5586C12.3733 59.5787 13.2015 59.4501 13.8822 60.1684C14.5427 60.865 14.404 61.644 13.4414 62.6066C10.0695 65.9771 6.70047 69.3504 3.32277 72.7151C2.86605 73.169 2.36164 73.5737 1.87891 74H0C0 73.3742 0 72.7469 0 72.1211Z" fill="white"></path><path id="Vector_3" d="M3.61223 62.5763C2.84477 62.5604 2.1857 61.8782 2.20449 61.1209C2.22184 60.3636 2.91848 59.6915 3.6657 59.7088C4.43028 59.7262 5.07778 60.4055 5.06332 61.1744C5.04887 61.9476 4.38258 62.5922 3.61223 62.5763Z" fill="white"></path><path id="Vector_4" d="M54.6732 19.3268C49.9138 20.603 45.2989 21.8402 40.684 23.0774C40.632 23.1511 40.58 23.2248 40.5279 23.2985C41.1263 23.8333 41.7463 24.3463 42.3187 24.9071C43.2567 25.8263 43.2538 26.5765 42.3303 27.5058C40.2909 29.5538 38.2458 31.596 36.1978 33.6354C36.0113 33.8204 35.8076 33.9981 35.5835 34.1326C35.0329 34.4606 34.2987 34.3508 33.8622 33.9028C33.4257 33.4547 33.3317 32.7147 33.6801 32.1756C33.8477 31.9154 34.0674 31.6842 34.2871 31.4645C36.0215 29.7272 37.7602 27.9958 39.5553 26.2065C38.6852 25.3393 37.8483 24.5126 37.0202 23.6786C35.8249 22.4747 36.1299 21.3025 37.766 20.8631C43.8493 19.2285 49.934 17.5982 56.0203 15.9751C57.5523 15.5661 58.4238 16.4564 58.0119 18.0014C56.396 24.0645 54.7758 30.1276 53.1528 36.1892C52.7004 37.8774 51.5354 38.1939 50.3069 36.9639C49.4918 36.1473 48.694 35.3148 47.8485 34.4491C47.597 34.6832 47.4047 34.8538 47.2241 35.0344C44.0545 38.1997 40.8864 41.3678 37.7168 44.5345C36.7383 45.5115 35.9058 45.643 35.2294 44.9319C34.5747 44.2425 34.7178 43.4476 35.6703 42.4937C39.2286 38.9324 42.787 35.3726 46.3468 31.8128C47.4452 30.7144 48.126 30.7086 49.2085 31.7897C49.7346 32.3158 50.2549 32.8477 50.8778 33.4764C52.1526 28.7242 53.3956 24.0963 54.6732 19.3297V19.3268Z" fill="white"></path><path id="Vector_5" d="M31.505 37.7197C31.4992 38.4771 30.8271 39.1564 30.0857 39.1564C29.3066 39.1564 28.5999 38.4381 28.6288 37.6764C28.6577 36.9248 29.3471 36.2701 30.0958 36.2816C30.8603 36.2932 31.5107 36.9566 31.5035 37.7197H31.505Z" fill="white"></path></symbol>
  <symbol id="Linkedin" viewBox="0 0 32 32" fill="currentColor" xmlns="http://www.w3.org/2000/svg">
		<path fill-rule="evenodd" clip-rule="evenodd" d="M8 6.66667C7.64638 6.66667 7.30724 6.80714 7.05719 7.05719C6.80714 7.30724 6.66667 7.64638 6.66667 8V24C6.66667 24.3536 6.80714 24.6928 7.05719 24.9428C7.30724 25.1929 7.64638 25.3333 8 25.3333H24C24.3536 25.3333 24.6928 25.1929 24.9428 24.9428C25.1929 24.6928 25.3333 24.3536 25.3333 24V8C25.3333 7.64638 25.1929 7.30724 24.9428 7.05719C24.6928 6.80714 24.3536 6.66667 24 6.66667H8ZM5.17157 5.17157C5.92172 4.42143 6.93913 4 8 4H24C25.0609 4 26.0783 4.42143 26.8284 5.17157C27.5786 5.92172 28 6.93913 28 8V24C28 25.0609 27.5786 26.0783 26.8284 26.8284C26.0783 27.5786 25.0609 28 24 28H8C6.93913 28 5.92172 27.5786 5.17157 26.8284C4.42143 26.0783 4 25.0609 4 24V8C4 6.93913 4.42143 5.92172 5.17157 5.17157Z"/>
		<path fill-rule="evenodd" clip-rule="evenodd" d="M10.6667 13.3334C11.4031 13.3334 12 13.9303 12 14.6667V21.3334C12 22.0698 11.4031 22.6667 10.6667 22.6667C9.93033 22.6667 9.33337 22.0698 9.33337 21.3334V14.6667C9.33337 13.9303 9.93033 13.3334 10.6667 13.3334Z"/>
		<path fill-rule="evenodd" clip-rule="evenodd" d="M10.6667 9.33337C11.4031 9.33337 12 9.93033 12 10.6667V10.68C12 11.4164 11.4031 12.0134 10.6667 12.0134C9.93033 12.0134 9.33337 11.4164 9.33337 10.68V10.6667C9.33337 9.93033 9.93033 9.33337 10.6667 9.33337Z"/>
		<path fill-rule="evenodd" clip-rule="evenodd" d="M16 13.3334C16.7363 13.3334 17.3333 13.9303 17.3333 14.6667V21.3334C17.3333 22.0698 16.7363 22.6667 16 22.6667C15.2636 22.6667 14.6666 22.0698 14.6666 21.3334V14.6667C14.6666 13.9303 15.2636 13.3334 16 13.3334Z"/>
		<path fill-rule="evenodd" clip-rule="evenodd" d="M15.8382 14.5049C16.5883 13.7548 17.6058 13.3334 18.6666 13.3334C19.7275 13.3334 20.7449 13.7548 21.4951 14.5049C22.2452 15.2551 22.6666 16.2725 22.6666 17.3334V21.3334C22.6666 22.0698 22.0697 22.6667 21.3333 22.6667C20.5969 22.6667 20 22.0698 20 21.3334V17.3334C20 16.9798 19.8595 16.6406 19.6094 16.3906C19.3594 16.1405 19.0202 16 18.6666 16C18.313 16 17.9739 16.1405 17.7238 16.3906C17.4738 16.6406 17.3333 16.9798 17.3333 17.3334C17.3333 18.0698 16.7363 18.6667 16 18.6667C15.2636 18.6667 14.6666 18.0698 14.6666 17.3334C14.6666 16.2725 15.0881 15.2551 15.8382 14.5049Z"/>
	</symbol>
  <symbol id="Message" xmlns="http://www.w3.org/2000/svg" viewBox="0 0 32 32" fill="currentColor"><path fill-rule="evenodd" clip-rule="evenodd" d="M9.33337 12C9.33337 11.2636 9.93033 10.6666 10.6667 10.6666H21.3334C22.0698 10.6666 22.6667 11.2636 22.6667 12C22.6667 12.7363 22.0698 13.3333 21.3334 13.3333H10.6667C9.93033 13.3333 9.33337 12.7363 9.33337 12Z"/><path fill-rule="evenodd" clip-rule="evenodd" d="M9.33337 17.3333C9.33337 16.597 9.93033 16 10.6667 16H18.6667C19.4031 16 20 16.597 20 17.3333C20 18.0697 19.4031 18.6667 18.6667 18.6667H10.6667C9.93033 18.6667 9.33337 18.0697 9.33337 17.3333Z"/><path fill-rule="evenodd" clip-rule="evenodd" d="M7.99996 6.66667C7.29272 6.66667 6.61444 6.94762 6.11434 7.44772C5.61424 7.94781 5.33329 8.62609 5.33329 9.33333V20C5.33329 20.7072 5.61424 21.3855 6.11434 21.8856C6.61444 22.3857 7.29272 22.6667 7.99996 22.6667H10.6666C11.403 22.6667 12 23.2636 12 24V25.6451L16.6473 22.8567C16.8545 22.7323 17.0916 22.6667 17.3333 22.6667H24C24.7072 22.6667 25.3855 22.3857 25.8856 21.8856C26.3857 21.3855 26.6666 20.7072 26.6666 20V9.33333C26.6666 8.62609 26.3857 7.94781 25.8856 7.44772C25.3855 6.94762 24.7072 6.66667 24 6.66667H7.99996ZM4.22872 5.5621C5.22892 4.5619 6.58547 4 7.99996 4H24C25.4144 4 26.771 4.5619 27.7712 5.5621C28.7714 6.56229 29.3333 7.91885 29.3333 9.33333V20C29.3333 21.4145 28.7714 22.771 27.7712 23.7712C26.771 24.7714 25.4144 25.3333 24 25.3333H17.7026L11.3526 29.1433C10.9407 29.3905 10.4277 29.3969 10.0097 29.1603C9.59168 28.9236 9.33329 28.4804 9.33329 28V25.3333H7.99996C6.58547 25.3333 5.22892 24.7714 4.22872 23.7712C3.22853 22.771 2.66663 21.4145 2.66663 20V9.33333C2.66663 7.91885 3.22853 6.56229 4.22872 5.5621Z"/></symbol>
</svg>
